{"glyphs":{"0":{"ha":965,"x_min":0,"x_max":0,"o":"m 483 -17 b 75 478 243 -17 75 188 b 483 971 75 767 243 971 b 890 478 721 971 890 767 b 483 -17 890 188 721 -17 m 483 113 b 746 478 638 113 746 264 b 483 842 746 692 638 842 b 218 478 328 842 218 692 b 483 113 218 264 328 113 "},"1":{"ha":519,"x_min":0,"x_max":0,"o":"m 254 788 l 89 682 l 31 783 l 282 954 l 396 954 l 396 0 l 254 0 "},"2":{"ha":828,"x_min":0,"x_max":0,"o":"m 65 115 l 415 404 b 592 679 543 511 592 593 b 411 844 592 783 506 844 b 164 703 307 844 231 789 l 69 786 b 417 971 153 901 265 971 b 736 682 594 971 736 856 b 511 319 736 554 675 453 l 288 131 l 744 131 l 744 0 l 65 0 "},"3":{"ha":824,"x_min":0,"x_max":0,"o":"m 408 -17 b 49 146 246 -17 122 54 l 139 239 b 406 110 203 161 296 110 b 608 271 529 110 608 175 b 383 419 608 369 526 421 l 279 419 l 279 544 l 383 543 b 589 692 504 543 589 596 b 394 844 589 781 506 844 b 154 717 294 844 221 794 l 67 803 b 404 971 140 899 249 971 b 732 711 597 971 732 864 b 549 489 732 593 649 519 b 753 261 649 467 753 394 b 408 -17 753 100 615 -17 "},"4":{"ha":876,"x_min":0,"x_max":0,"o":"m 538 219 l 64 219 l 49 332 l 511 954 l 678 954 l 678 343 l 815 343 l 815 219 l 678 219 l 678 0 l 538 0 m 538 343 l 538 794 l 203 343 "},"5":{"ha":840,"x_min":0,"x_max":0,"o":"m 415 -17 b 68 133 264 -17 150 44 l 156 233 b 419 107 229 157 318 107 b 626 297 543 107 626 190 b 418 481 626 407 542 481 b 214 411 339 481 271 454 l 115 456 l 129 954 l 717 954 l 717 824 l 263 824 l 254 540 b 453 601 304 574 368 601 b 768 303 624 601 768 493 b 415 -17 768 110 622 -17 "},"6":{"ha":875,"x_min":0,"x_max":0,"o":"m 478 603 b 799 304 653 603 799 493 b 453 -17 799 121 654 -17 b 75 463 188 -17 75 190 b 479 971 75 751 246 971 b 757 861 596 971 683 926 l 685 753 b 478 844 625 807 565 844 b 218 476 332 844 222 688 b 478 603 276 556 372 603 m 447 103 b 654 297 576 103 654 201 b 444 485 654 414 561 485 b 229 331 339 485 254 424 b 447 103 254 194 322 103 "},"7":{"ha":835,"x_min":0,"x_max":0,"o":"m 578 824 l 76 824 l 76 954 l 743 954 l 743 849 l 342 0 l 181 0 "},"8":{"ha":850,"x_min":0,"x_max":0,"o":"m 425 -17 b 65 251 224 -17 65 88 b 268 493 65 369 154 454 b 90 715 164 535 90 607 b 425 971 90 878 253 971 b 761 715 603 971 761 874 b 583 493 761 601 681 531 b 785 251 697 453 785 368 b 425 -17 785 86 625 -17 m 425 546 b 621 700 513 551 621 604 b 425 847 621 785 535 847 b 231 700 315 847 231 785 b 425 546 231 601 340 551 m 425 107 b 643 264 547 107 643 171 b 425 429 643 365 519 426 b 207 264 332 426 207 365 b 425 107 207 171 303 107 "},"9":{"ha":875,"x_min":0,"x_max":0,"o":"m 422 971 b 800 492 688 971 800 764 b 396 -17 800 203 629 -17 b 118 93 279 -17 192 28 l 190 201 b 397 110 250 147 310 110 b 657 478 543 110 653 267 b 397 351 599 399 503 351 b 76 650 222 351 76 461 b 422 971 76 833 221 971 m 431 469 b 646 624 536 469 621 531 b 428 851 621 760 553 851 b 221 657 299 851 221 753 b 431 469 221 540 314 469 "},"A":{"ha":1047,"x_min":0,"x_max":0,"o":"m 772 194 l 275 194 l 192 0 l 36 0 l 446 954 l 601 954 l 1011 0 l 856 0 m 718 321 l 524 774 l 329 321 "},"Á":{"ha":1047,"x_min":0,"x_max":0,"o":"m 571 1036 l 471 1036 l 636 1242 l 771 1214 m 772 194 l 275 194 l 192 0 l 36 0 l 446 954 l 601 954 l 1011 0 l 856 0 m 718 321 l 524 774 l 329 321 "},"Ă":{"ha":1047,"x_min":0,"x_max":0,"o":"m 733 1136 b 524 1050 676 1079 600 1050 b 314 1136 447 1050 372 1079 l 386 1210 b 524 1151 424 1174 475 1151 b 661 1210 572 1151 624 1174 l 733 1136 m 772 194 l 275 194 l 192 0 l 36 0 l 446 954 l 601 954 l 1011 0 l 856 0 m 718 321 l 524 774 l 329 321 "},"Â":{"ha":1047,"x_min":0,"x_max":0,"o":"m 417 1036 l 322 1036 l 464 1231 l 585 1231 l 728 1036 l 632 1036 l 524 1150 m 772 194 l 275 194 l 192 0 l 36 0 l 446 954 l 601 954 l 1011 0 l 856 0 m 718 321 l 524 774 l 329 321 "},"Ä":{"ha":1047,"x_min":0,"x_max":0,"o":"m 386 1060 b 311 1135 343 1060 311 1093 b 386 1210 311 1174 343 1210 b 461 1135 428 1210 461 1174 b 386 1060 461 1093 428 1060 m 663 1060 b 588 1135 619 1060 588 1093 b 663 1210 588 1174 619 1210 b 738 1135 703 1210 738 1174 b 663 1060 738 1093 703 1060 m 772 194 l 275 194 l 192 0 l 36 0 l 446 954 l 601 954 l 1011 0 l 856 0 m 718 321 l 524 774 l 329 321 "},"À":{"ha":1047,"x_min":0,"x_max":0,"o":"m 476 1036 l 276 1214 l 410 1242 l 576 1036 m 772 194 l 275 194 l 192 0 l 36 0 l 446 954 l 601 954 l 1011 0 l 856 0 m 718 321 l 524 774 l 329 321 "},"Ā":{"ha":1047,"x_min":0,"x_max":0,"o":"m 747 1056 l 300 1056 l 300 1146 l 747 1146 m 772 194 l 275 194 l 192 0 l 36 0 l 446 954 l 601 954 l 1011 0 l 856 0 m 718 321 l 524 774 l 329 321 "},"Ą":{"ha":1047,"x_min":0,"x_max":0,"o":"m 1113 -199 b 994 -240 1082 -225 1040 -240 b 842 -90 904 -240 842 -183 b 874 0 842 -56 854 -24 l 856 0 l 772 194 l 275 194 l 192 0 l 36 0 l 446 954 l 601 954 l 1011 0 b 936 -74 967 0 936 -31 b 1011 -144 936 -118 964 -144 b 1071 -121 1038 -144 1058 -135 m 718 321 l 524 774 l 329 321 "},"Å":{"ha":1047,"x_min":0,"x_max":0,"o":"m 524 1050 b 375 1199 442 1050 375 1117 b 524 1346 375 1281 442 1346 b 671 1199 606 1346 671 1281 b 524 1050 671 1117 606 1050 m 524 1278 b 444 1199 481 1278 444 1242 b 524 1119 444 1156 481 1119 b 603 1199 567 1119 603 1156 b 524 1278 603 1242 567 1278 m 772 194 l 275 194 l 192 0 l 36 0 l 446 954 l 601 954 l 1011 0 l 856 0 m 718 321 l 524 774 l 329 321 "},"Ã":{"ha":1047,"x_min":0,"x_max":0,"o":"m 433 1118 b 368 1031 399 1118 378 1093 l 292 1043 b 432 1214 306 1153 350 1214 b 613 1129 513 1214 560 1129 b 678 1217 646 1129 667 1156 l 754 1206 b 614 1033 740 1094 694 1033 b 433 1118 533 1033 486 1118 m 772 194 l 275 194 l 192 0 l 36 0 l 446 954 l 601 954 l 1011 0 l 856 0 m 718 321 l 524 774 l 329 321 "},"Æ":{"ha":1447,"x_min":0,"x_max":0,"o":"m 815 824 l 815 551 l 1321 551 l 1321 421 l 815 421 l 815 131 l 1375 131 l 1375 0 l 674 0 l 674 199 l 314 199 l 199 0 l 36 0 l 586 954 l 1375 954 l 1375 824 m 674 321 l 674 822 l 383 321 "},"B":{"ha":956,"x_min":0,"x_max":0,"o":"m 121 954 l 574 954 b 846 717 733 954 846 856 b 710 506 846 617 796 554 b 885 260 821 451 885 365 b 592 0 885 107 763 0 l 121 0 m 539 557 b 703 693 635 557 703 614 b 539 831 703 772 635 831 l 261 831 l 261 557 m 560 124 b 742 281 667 124 742 189 b 560 438 742 372 667 438 l 261 438 l 261 124 "},"C":{"ha":951,"x_min":0,"x_max":0,"o":"m 563 -17 b 67 478 294 -17 67 210 b 563 971 67 746 294 971 b 914 821 699 971 824 914 l 815 726 b 563 842 751 796 661 842 b 211 478 372 842 211 675 b 563 113 211 279 372 113 b 815 228 661 113 751 158 l 914 133 b 563 -17 824 42 699 -17 "},"Ć":{"ha":951,"x_min":0,"x_max":0,"o":"m 576 1242 l 711 1214 l 511 1036 l 411 1036 m 563 -17 b 67 478 294 -17 67 210 b 563 971 67 746 294 971 b 914 821 699 971 824 914 l 815 726 b 563 842 751 796 661 842 b 211 478 372 842 211 675 b 563 113 211 279 372 113 b 815 228 661 113 751 158 l 914 133 b 563 -17 824 42 699 -17 "},"Č":{"ha":951,"x_min":0,"x_max":0,"o":"m 332 1231 l 426 1231 l 533 1117 l 642 1231 l 738 1231 l 594 1036 l 474 1036 m 563 -17 b 67 478 294 -17 67 210 b 563 971 67 746 294 971 b 914 821 699 971 824 914 l 815 726 b 563 842 751 796 661 842 b 211 478 372 842 211 675 b 563 113 211 279 372 113 b 815 228 661 113 751 158 l 914 133 b 563 -17 824 42 699 -17 "},"Ç":{"ha":951,"x_min":0,"x_max":0,"o":"m 563 113 b 815 228 661 113 751 158 l 914 133 b 590 -15 831 49 715 -8 l 571 -61 l 582 -61 b 681 -154 639 -61 681 -100 b 539 -269 681 -224 619 -269 b 414 -229 490 -269 443 -251 l 443 -164 b 532 -196 471 -186 501 -196 b 597 -147 569 -196 597 -175 b 546 -103 597 -122 581 -103 b 501 -117 531 -103 514 -108 l 476 -92 l 508 -14 b 67 478 265 14 67 228 b 563 971 67 746 294 971 b 914 821 699 971 824 914 l 815 726 b 563 842 751 796 661 842 b 211 478 372 842 211 675 b 563 113 211 279 372 113 "},"D":{"ha":1058,"x_min":0,"x_max":0,"o":"m 121 954 l 450 954 b 978 478 758 954 978 757 b 450 0 978 199 758 0 l 121 0 m 458 128 b 833 478 679 128 833 272 b 458 826 833 682 679 826 l 261 826 l 261 128 "},"Ð":{"ha":1093,"x_min":0,"x_max":0,"o":"m 485 954 b 1013 478 793 954 1013 757 b 485 0 1013 199 793 0 l 156 0 l 156 419 l 58 419 l 58 550 l 156 550 l 156 954 l 485 954 m 493 128 b 868 478 714 128 868 272 b 493 826 868 682 714 826 l 296 826 l 296 550 l 557 550 l 556 419 l 296 419 l 296 128 l 493 128 "},"Ď":{"ha":1058,"x_min":0,"x_max":0,"o":"m 249 1231 l 343 1231 l 450 1117 l 558 1231 l 654 1231 l 511 1036 l 390 1036 m 121 954 l 450 954 b 978 478 758 954 978 757 b 450 0 978 199 758 0 l 121 0 m 458 128 b 833 478 679 128 833 272 b 458 826 833 682 679 826 l 261 826 l 261 128 "},"Đ":{"ha":1093,"x_min":0,"x_max":0,"o":"m 485 954 b 1013 478 793 954 1013 757 b 485 0 1013 199 793 0 l 156 0 l 156 419 l 58 419 l 58 550 l 156 550 l 156 954 l 485 954 m 493 128 b 868 478 714 128 868 272 b 493 826 868 682 714 826 l 296 826 l 296 550 l 557 550 l 556 419 l 296 419 l 296 128 l 493 128 "},"E":{"ha":878,"x_min":0,"x_max":0,"o":"m 246 824 l 246 551 l 751 551 l 751 421 l 246 421 l 246 131 l 806 131 l 806 0 l 104 0 l 104 954 l 806 954 l 806 824 "},"É":{"ha":878,"x_min":0,"x_max":0,"o":"m 433 1036 l 333 1036 l 499 1242 l 633 1214 m 246 824 l 246 551 l 751 551 l 751 421 l 246 421 l 246 131 l 806 131 l 806 0 l 104 0 l 104 954 l 806 954 l 806 824 "},"Ě":{"ha":878,"x_min":0,"x_max":0,"o":"m 396 1036 l 254 1231 l 349 1231 l 456 1117 l 564 1231 l 660 1231 l 517 1036 m 246 824 l 246 551 l 751 551 l 751 421 l 246 421 l 246 131 l 806 131 l 806 0 l 104 0 l 104 954 l 806 954 l 806 824 "},"Ê":{"ha":878,"x_min":0,"x_max":0,"o":"m 349 1036 l 254 1036 l 396 1231 l 517 1231 l 660 1036 l 564 1036 l 456 1150 m 246 824 l 246 551 l 751 551 l 751 421 l 246 421 l 246 131 l 806 131 l 806 0 l 104 0 l 104 954 l 806 954 l 806 824 "},"Ë":{"ha":878,"x_min":0,"x_max":0,"o":"m 318 1060 b 243 1135 275 1060 243 1093 b 318 1210 243 1174 275 1210 b 393 1135 360 1210 393 1174 b 318 1060 393 1093 360 1060 m 594 1060 b 519 1135 551 1060 519 1093 b 594 1210 519 1174 551 1210 b 669 1135 635 1210 669 1174 b 594 1060 669 1093 635 1060 m 246 824 l 246 551 l 751 551 l 751 421 l 246 421 l 246 131 l 806 131 l 806 0 l 104 0 l 104 954 l 806 954 l 806 824 "},"Ė":{"ha":878,"x_min":0,"x_max":0,"o":"m 456 1060 b 381 1135 413 1060 381 1093 b 456 1210 381 1174 413 1210 b 531 1135 497 1210 531 1174 b 456 1060 531 1093 497 1060 m 246 824 l 246 551 l 751 551 l 751 421 l 246 421 l 246 131 l 806 131 l 806 0 l 104 0 l 104 954 l 806 954 l 806 824 "},"Ẹ":{"ha":878,"x_min":0,"x_max":0,"o":"m 246 824 l 246 551 l 751 551 l 751 421 l 246 421 l 246 131 l 806 131 l 806 0 l 104 0 l 104 954 l 806 954 l 806 824 m 456 -107 b 531 -182 497 -107 531 -143 b 456 -257 531 -224 497 -257 b 381 -182 413 -257 381 -224 b 456 -107 381 -143 413 -107 "},"È":{"ha":878,"x_min":0,"x_max":0,"o":"m 464 1036 l 264 1214 l 397 1242 l 564 1036 m 246 824 l 246 551 l 751 551 l 751 421 l 246 421 l 246 131 l 806 131 l 806 0 l 104 0 l 104 954 l 806 954 l 806 824 "},"Ē":{"ha":878,"x_min":0,"x_max":0,"o":"m 679 1056 l 232 1056 l 232 1146 l 679 1146 m 246 824 l 246 551 l 751 551 l 751 421 l 246 421 l 246 131 l 806 131 l 806 0 l 104 0 l 104 954 l 806 954 l 806 824 "},"Ę":{"ha":878,"x_min":0,"x_max":0,"o":"m 246 824 l 246 551 l 751 551 l 751 421 l 246 421 l 246 131 l 806 131 l 806 0 l 704 0 b 629 -74 660 0 629 -31 b 704 -144 629 -118 657 -144 b 764 -121 731 -144 751 -135 l 806 -199 b 688 -240 775 -225 733 -240 b 535 -90 597 -240 535 -183 b 567 0 535 -56 547 -24 l 104 0 l 104 954 l 806 954 l 806 824 "},"Ẽ":{"ha":878,"x_min":0,"x_max":0,"o":"m 365 1118 b 300 1031 331 1118 310 1093 l 224 1043 b 364 1214 238 1153 282 1214 b 544 1129 444 1214 492 1129 b 610 1217 578 1129 599 1156 l 686 1206 b 546 1033 672 1094 626 1033 b 365 1118 465 1033 418 1118 m 246 824 l 246 551 l 751 551 l 751 421 l 246 421 l 246 131 l 806 131 l 806 0 l 104 0 l 104 954 l 806 954 l 806 824 "},"F":{"ha":857,"x_min":0,"x_max":0,"o":"m 246 824 l 246 546 l 751 546 l 751 415 l 246 415 l 246 0 l 104 0 l 104 954 l 806 954 l 806 824 "},"G":{"ha":1033,"x_min":0,"x_max":0,"o":"m 544 514 l 939 514 l 939 133 b 564 -17 849 42 699 -17 b 67 478 296 -17 67 210 b 564 971 67 746 296 971 b 939 821 699 971 849 914 l 840 726 b 564 842 775 797 663 842 b 211 478 372 842 211 675 b 564 113 211 279 372 113 b 800 192 644 113 735 142 l 800 392 l 544 392 "},"Ğ":{"ha":1033,"x_min":0,"x_max":0,"o":"m 774 1136 b 564 1050 717 1079 640 1050 b 354 1136 488 1050 413 1079 l 426 1210 b 564 1151 464 1174 515 1151 b 701 1210 613 1151 664 1174 l 774 1136 m 544 514 l 939 514 l 939 133 b 564 -17 849 42 699 -17 b 67 478 296 -17 67 210 b 564 971 67 746 296 971 b 939 821 699 971 849 914 l 840 726 b 564 842 775 797 663 842 b 211 478 372 842 211 675 b 564 113 211 279 372 113 b 800 192 644 113 735 142 l 800 392 l 544 392 "},"Ģ":{"ha":1033,"x_min":0,"x_max":0,"o":"m 544 514 l 939 514 l 939 133 b 564 -17 849 42 699 -17 b 67 478 296 -17 67 210 b 564 971 67 746 296 971 b 939 821 699 971 849 914 l 840 726 b 564 842 775 797 663 842 b 211 478 372 842 211 675 b 564 113 211 279 372 113 b 800 192 644 113 735 142 l 800 392 l 544 392 m 560 -97 b 642 -204 610 -97 642 -142 b 543 -389 642 -257 615 -304 l 494 -354 b 557 -246 528 -319 549 -283 b 485 -172 518 -246 485 -212 b 560 -97 485 -132 518 -97 "},"H":{"ha":1010,"x_min":0,"x_max":0,"o":"m 906 954 l 906 0 l 765 0 l 765 421 l 244 421 l 244 0 l 104 0 l 104 954 l 244 954 l 244 551 l 765 551 l 765 954 "},"I":{"ha":351,"x_min":0,"x_max":0,"o":"m 106 954 l 246 954 l 246 0 l 106 0 "},"Í":{"ha":351,"x_min":0,"x_max":0,"o":"m 290 1242 l 425 1214 l 225 1036 l 125 1036 m 106 954 l 246 954 l 246 0 l 106 0 "},"Î":{"ha":351,"x_min":0,"x_max":0,"o":"m 117 1231 l 238 1231 l 381 1036 l 285 1036 l 176 1150 l 69 1036 l -25 1036 m 106 954 l 246 954 l 246 0 l 106 0 "},"Ï":{"ha":351,"x_min":0,"x_max":0,"o":"m 39 1060 b -36 1135 -4 1060 -36 1093 b 39 1210 -36 1174 -4 1210 b 114 1135 81 1210 114 1174 b 39 1060 114 1093 81 1060 m 315 1060 b 240 1135 272 1060 240 1093 b 315 1210 240 1174 272 1210 b 390 1135 356 1210 390 1174 b 315 1060 390 1093 356 1060 m 106 954 l 246 954 l 246 0 l 106 0 "},"İ":{"ha":351,"x_min":0,"x_max":0,"o":"m 176 1060 b 101 1135 133 1060 101 1093 b 176 1210 101 1174 133 1210 b 251 1135 218 1210 251 1174 b 176 1060 251 1093 218 1060 m 106 954 l 246 954 l 246 0 l 106 0 "},"Ì":{"ha":351,"x_min":0,"x_max":0,"o":"m -72 1214 l 61 1242 l 228 1036 l 128 1036 m 106 954 l 246 954 l 246 0 l 106 0 "},"Ī":{"ha":351,"x_min":0,"x_max":0,"o":"m -47 1146 l 400 1146 l 400 1056 l -47 1056 m 106 954 l 246 954 l 246 0 l 106 0 "},"Į":{"ha":351,"x_min":0,"x_max":0,"o":"m 339 -199 b 221 -240 308 -225 267 -240 b 68 -90 131 -240 68 -183 b 106 6 68 -53 83 -18 l 106 954 l 246 954 l 246 0 l 238 0 b 163 -74 193 0 163 -31 b 238 -144 163 -118 190 -144 b 297 -121 264 -144 285 -135 "},"J":{"ha":753,"x_min":0,"x_max":0,"o":"m 332 -17 b 29 142 215 -17 90 49 l 128 238 b 325 111 163 164 244 111 b 501 317 428 111 501 196 l 501 954 l 642 954 l 642 311 b 332 -17 642 119 514 -17 "},"K":{"ha":935,"x_min":0,"x_max":0,"o":"m 119 954 l 260 954 l 260 457 l 710 954 l 889 954 l 497 525 l 915 0 l 739 0 l 399 428 l 260 279 l 260 0 l 119 0 "},"Ķ":{"ha":935,"x_min":0,"x_max":0,"o":"m 119 954 l 260 954 l 260 457 l 710 954 l 889 954 l 497 525 l 915 0 l 739 0 l 399 428 l 260 279 l 260 0 l 119 0 m 418 -354 b 481 -246 451 -319 472 -283 b 408 -172 442 -246 408 -212 b 483 -97 408 -132 442 -97 b 565 -204 533 -97 565 -142 b 467 -389 565 -257 539 -304 "},"L":{"ha":782,"x_min":0,"x_max":0,"o":"m 739 131 l 739 0 l 92 0 l 92 954 l 233 954 l 233 131 "},"Ĺ":{"ha":782,"x_min":0,"x_max":0,"o":"m 211 1036 l 111 1036 l 276 1242 l 411 1214 m 739 131 l 739 0 l 92 0 l 92 954 l 233 954 l 233 131 "},"Ľ":{"ha":782,"x_min":0,"x_max":0,"o":"m 404 822 b 332 896 365 822 332 856 b 407 971 332 936 365 971 b 489 864 457 971 489 926 b 390 679 489 811 463 764 l 342 714 b 404 822 375 749 396 785 m 739 131 l 739 0 l 92 0 l 92 954 l 233 954 l 233 131 "},"Ł":{"ha":847,"x_min":0,"x_max":0,"o":"m 804 131 l 804 0 l 157 0 l 157 367 l 46 310 l 46 439 l 157 496 l 157 954 l 299 954 l 299 567 l 481 660 l 481 531 l 299 438 l 299 131 "},"M":{"ha":1192,"x_min":0,"x_max":0,"o":"m 121 954 l 261 954 l 596 331 l 931 954 l 1071 954 l 1071 0 l 931 0 l 931 679 l 596 56 l 261 679 l 261 0 l 121 0 "},"N":{"ha":1071,"x_min":0,"x_max":0,"o":"m 121 954 l 261 954 l 810 231 l 810 954 l 950 954 l 950 0 l 810 0 l 261 724 l 261 0 l 121 0 "},"Ń":{"ha":1071,"x_min":0,"x_max":0,"o":"m 579 1242 l 714 1214 l 514 1036 l 414 1036 m 121 954 l 261 954 l 810 231 l 810 954 l 950 954 l 950 0 l 810 0 l 261 724 l 261 0 l 121 0 "},"Ň":{"ha":1071,"x_min":0,"x_max":0,"o":"m 335 1231 l 429 1231 l 536 1117 l 644 1231 l 740 1231 l 597 1036 l 476 1036 m 121 954 l 261 954 l 810 231 l 810 954 l 950 954 l 950 0 l 810 0 l 261 724 l 261 0 l 121 0 "},"Ņ":{"ha":1071,"x_min":0,"x_max":0,"o":"m 121 954 l 261 954 l 810 231 l 810 954 l 950 954 l 950 0 l 810 0 l 261 724 l 261 0 l 121 0 m 471 -354 b 533 -246 504 -319 525 -283 b 461 -172 494 -246 461 -212 b 536 -97 461 -132 494 -97 b 618 -204 586 -97 618 -142 b 519 -389 618 -257 592 -304 "},"Ñ":{"ha":1071,"x_min":0,"x_max":0,"o":"m 626 1033 b 446 1118 546 1033 499 1118 b 381 1031 411 1118 390 1093 l 304 1043 b 444 1214 318 1153 363 1214 b 625 1129 525 1214 572 1129 b 690 1217 658 1129 679 1156 l 767 1206 b 626 1033 753 1094 707 1033 m 121 954 l 261 954 l 810 231 l 810 954 l 950 954 l 950 0 l 810 0 l 261 724 l 261 0 l 121 0 "},"O":{"ha":1124,"x_min":0,"x_max":0,"o":"m 563 -17 b 67 478 294 -17 67 210 b 563 971 67 746 294 971 b 1056 478 831 971 1056 746 b 563 -17 1056 210 831 -17 m 563 113 b 913 478 753 113 913 279 b 563 842 913 675 753 842 b 211 478 372 842 211 675 b 563 113 211 279 372 113 "},"Ó":{"ha":1124,"x_min":0,"x_max":0,"o":"m 675 1242 l 810 1214 l 610 1036 l 510 1036 m 563 -17 b 67 478 294 -17 67 210 b 563 971 67 746 294 971 b 1056 478 831 971 1056 746 b 563 -17 1056 210 831 -17 m 563 113 b 913 478 753 113 913 279 b 563 842 913 675 753 842 b 211 478 372 842 211 675 b 563 113 211 279 372 113 "},"Ô":{"ha":1124,"x_min":0,"x_max":0,"o":"m 503 1231 l 624 1231 l 767 1036 l 671 1036 l 563 1150 l 456 1036 l 361 1036 m 563 -17 b 67 478 294 -17 67 210 b 563 971 67 746 294 971 b 1056 478 831 971 1056 746 b 563 -17 1056 210 831 -17 m 563 113 b 913 478 753 113 913 279 b 563 842 913 675 753 842 b 211 478 372 842 211 675 b 563 113 211 279 372 113 "},"Ö":{"ha":1124,"x_min":0,"x_max":0,"o":"m 425 1060 b 350 1135 382 1060 350 1093 b 425 1210 350 1174 382 1210 b 500 1135 467 1210 500 1174 b 425 1060 500 1093 467 1060 m 701 1060 b 626 1135 658 1060 626 1093 b 701 1210 626 1174 658 1210 b 776 1135 742 1210 776 1174 b 701 1060 776 1093 742 1060 m 563 -17 b 67 478 294 -17 67 210 b 563 971 67 746 294 971 b 1056 478 831 971 1056 746 b 563 -17 1056 210 831 -17 m 563 113 b 913 478 753 113 913 279 b 563 842 913 675 753 842 b 211 478 372 842 211 675 b 563 113 211 279 372 113 "},"Ò":{"ha":1124,"x_min":0,"x_max":0,"o":"m 317 1214 l 450 1242 l 617 1036 l 517 1036 m 563 -17 b 67 478 294 -17 67 210 b 563 971 67 746 294 971 b 1056 478 831 971 1056 746 b 563 -17 1056 210 831 -17 m 563 113 b 913 478 753 113 913 279 b 563 842 913 675 753 842 b 211 478 372 842 211 675 b 563 113 211 279 372 113 "},"Ő":{"ha":1124,"x_min":0,"x_max":0,"o":"m 515 1242 l 650 1214 l 450 1035 l 350 1035 m 810 1239 l 943 1211 l 743 1035 l 644 1035 m 563 -17 b 67 478 294 -17 67 210 b 563 971 67 746 294 971 b 1056 478 831 971 1056 746 b 563 -17 1056 210 831 -17 m 563 113 b 913 478 753 113 913 279 b 563 842 913 675 753 842 b 211 478 372 842 211 675 b 563 113 211 279 372 113 "},"Ō":{"ha":1124,"x_min":0,"x_max":0,"o":"m 339 1146 l 786 1146 l 786 1056 l 339 1056 m 563 -17 b 67 478 294 -17 67 210 b 563 971 67 746 294 971 b 1056 478 831 971 1056 746 b 563 -17 1056 210 831 -17 m 563 113 b 913 478 753 113 913 279 b 563 842 913 675 753 842 b 211 478 372 842 211 675 b 563 113 211 279 372 113 "},"Ø":{"ha":1124,"x_min":0,"x_max":0,"o":"m 922 813 b 1056 478 1004 724 1056 606 b 563 -17 1056 210 831 -17 b 282 74 460 -17 363 17 l 218 0 l 79 0 l 203 142 b 67 478 118 231 67 350 b 563 971 67 746 294 971 b 843 882 665 971 763 938 l 906 954 l 1044 954 l 922 813 m 211 478 b 293 247 211 390 242 310 l 754 781 b 563 842 699 819 633 842 b 211 478 372 842 211 675 m 563 113 b 913 478 753 113 913 279 b 832 708 913 564 882 644 l 369 175 b 563 113 425 136 492 113 "},"Õ":{"ha":1124,"x_min":0,"x_max":0,"o":"m 653 1033 b 472 1118 572 1033 525 1118 b 407 1031 438 1118 417 1093 l 331 1043 b 471 1214 344 1153 389 1214 b 651 1129 551 1214 599 1129 b 717 1217 685 1129 706 1156 l 793 1206 b 653 1033 779 1094 733 1033 m 563 -17 b 67 478 294 -17 67 210 b 563 971 67 746 294 971 b 1056 478 831 971 1056 746 b 563 -17 1056 210 831 -17 m 563 113 b 913 478 753 113 913 279 b 563 842 913 675 753 842 b 211 478 372 842 211 675 b 563 113 211 279 372 113 "},"Œ":{"ha":1438,"x_min":0,"x_max":0,"o":"m 806 824 l 806 551 l 1311 551 l 1311 421 l 806 421 l 806 131 l 1365 131 l 1365 0 l 563 0 b 67 467 294 0 67 199 b 563 954 67 735 294 954 l 1365 954 l 1365 824 m 664 129 l 664 825 l 563 825 b 211 467 372 825 211 664 b 563 129 211 268 372 129 "},"P":{"ha":901,"x_min":0,"x_max":0,"o":"m 104 954 l 506 954 b 860 643 707 954 860 825 b 506 332 860 461 707 332 l 244 332 l 244 0 l 104 0 m 486 463 b 717 643 624 463 717 531 b 486 824 717 756 624 824 l 244 824 l 244 463 "},"Þ":{"ha":901,"x_min":0,"x_max":0,"o":"m 104 954 l 246 954 l 246 792 l 506 792 b 860 481 707 792 860 663 b 506 169 860 297 707 169 l 244 169 l 244 0 l 104 0 m 486 300 b 717 481 624 300 717 368 b 486 660 717 593 624 660 l 244 660 l 244 300 "},"Q":{"ha":1124,"x_min":0,"x_max":0,"o":"m 1056 478 b 954 182 1056 368 1018 265 l 1056 94 l 975 0 l 868 93 b 563 -17 783 25 676 -17 b 67 478 294 -17 67 210 b 563 971 67 746 294 971 b 1056 478 831 971 1056 746 m 563 113 b 765 182 638 113 708 139 l 629 300 l 710 394 l 850 272 b 913 478 889 332 913 403 b 563 842 913 675 753 842 b 211 478 372 842 211 675 b 563 113 211 279 372 113 "},"R":{"ha":915,"x_min":0,"x_max":0,"o":"m 860 643 b 615 346 860 496 760 383 l 858 0 l 697 0 l 464 332 l 244 332 l 244 0 l 104 0 l 104 954 l 506 954 b 860 643 707 954 860 825 m 244 463 l 486 463 b 717 643 624 463 717 531 b 486 824 717 756 624 824 l 244 824 "},"Ŕ":{"ha":915,"x_min":0,"x_max":0,"o":"m 444 1036 l 344 1036 l 510 1242 l 644 1214 m 860 643 b 615 346 860 496 760 383 l 858 0 l 697 0 l 464 332 l 244 332 l 244 0 l 104 0 l 104 954 l 506 954 b 860 643 707 954 860 825 m 244 463 l 486 463 b 717 643 624 463 717 531 b 486 824 717 756 624 824 l 244 824 "},"Ř":{"ha":915,"x_min":0,"x_max":0,"o":"m 407 1036 l 265 1231 l 360 1231 l 467 1117 l 575 1231 l 671 1231 l 528 1036 m 860 643 b 615 346 860 496 760 383 l 858 0 l 697 0 l 464 332 l 244 332 l 244 0 l 104 0 l 104 954 l 506 954 b 860 643 707 954 860 825 m 244 463 l 486 463 b 717 643 624 463 717 531 b 486 824 717 756 624 824 l 244 824 "},"Ŗ":{"ha":915,"x_min":0,"x_max":0,"o":"m 860 643 b 615 346 860 496 760 383 l 858 0 l 697 0 l 464 332 l 244 332 l 244 0 l 104 0 l 104 954 l 506 954 b 860 643 707 954 860 825 m 244 463 l 486 463 b 717 643 624 463 717 531 b 486 824 717 756 624 824 l 244 824 m 451 -97 b 533 -204 501 -97 533 -142 b 435 -389 533 -257 507 -304 l 386 -354 b 449 -246 419 -319 440 -283 b 376 -172 410 -246 376 -212 b 451 -97 376 -132 410 -97 "},"S":{"ha":861,"x_min":0,"x_max":0,"o":"m 446 -15 b 53 138 286 -15 154 40 l 138 242 b 451 108 222 161 322 108 b 651 254 583 108 651 178 b 413 415 651 344 572 379 b 89 692 218 461 89 519 b 419 972 89 851 228 972 b 768 838 567 972 676 918 l 688 732 b 414 849 607 806 511 849 b 232 704 307 849 232 781 b 471 547 232 615 314 585 b 793 268 661 503 793 439 b 446 -15 793 107 671 -15 "},"Ś":{"ha":861,"x_min":0,"x_max":0,"o":"m 463 1242 l 597 1214 l 397 1036 l 297 1036 m 446 -15 b 53 138 286 -15 154 40 l 138 242 b 451 108 222 161 322 108 b 651 254 583 108 651 178 b 413 415 651 344 572 379 b 89 692 218 461 89 519 b 419 972 89 851 228 972 b 768 838 567 972 676 918 l 688 732 b 414 849 607 806 511 849 b 232 704 307 849 232 781 b 471 547 232 615 314 585 b 793 268 661 503 793 439 b 446 -15 793 107 671 -15 "},"Š":{"ha":861,"x_min":0,"x_max":0,"o":"m 218 1231 l 313 1231 l 419 1117 l 528 1231 l 624 1231 l 481 1036 l 360 1036 m 446 -15 b 53 138 286 -15 154 40 l 138 242 b 451 108 222 161 322 108 b 651 254 583 108 651 178 b 413 415 651 344 572 379 b 89 692 218 461 89 519 b 419 972 89 851 228 972 b 768 838 567 972 676 918 l 688 732 b 414 849 607 806 511 849 b 232 704 307 849 232 781 b 471 547 232 615 314 585 b 793 268 661 503 793 439 b 446 -15 793 107 671 -15 "},"Ş":{"ha":861,"x_min":0,"x_max":0,"o":"m 793 268 b 475 -15 793 114 682 -4 l 454 -61 l 465 -61 b 564 -154 522 -61 564 -100 b 422 -269 564 -224 503 -269 b 297 -229 374 -269 326 -251 l 326 -164 b 415 -196 354 -186 385 -196 b 481 -147 453 -196 481 -175 b 429 -103 481 -122 464 -103 b 385 -117 414 -103 397 -108 l 360 -92 l 392 -12 b 53 138 257 -3 143 51 l 138 242 b 451 108 222 161 322 108 b 651 254 583 108 651 178 b 413 415 651 344 572 379 b 89 692 218 461 89 519 b 419 972 89 851 228 972 b 768 838 567 972 676 918 l 688 732 b 414 849 607 806 511 849 b 232 704 307 849 232 781 b 471 547 232 615 314 585 b 793 268 661 503 793 439 "},"T":{"ha":879,"x_min":0,"x_max":0,"o":"m 369 824 l 57 824 l 57 954 l 824 954 l 824 824 l 510 824 l 510 0 l 369 0 "},"Ť":{"ha":879,"x_min":0,"x_max":0,"o":"m 239 1231 l 333 1231 l 440 1117 l 549 1231 l 644 1231 l 501 1036 l 381 1036 m 369 824 l 57 824 l 57 954 l 824 954 l 824 824 l 510 824 l 510 0 l 369 0 "},"Ţ":{"ha":879,"x_min":0,"x_max":0,"o":"m 482 0 l 456 -61 l 467 -61 b 565 -154 524 -61 565 -100 b 424 -269 565 -224 504 -269 b 299 -229 375 -269 328 -251 l 328 -164 b 417 -196 356 -186 386 -196 b 482 -147 454 -196 482 -175 b 431 -103 482 -122 465 -103 b 386 -117 415 -103 399 -108 l 361 -92 l 399 0 l 369 0 l 369 824 l 57 824 l 57 954 l 824 954 l 824 824 l 510 824 l 510 0 "},"U":{"ha":1040,"x_min":0,"x_max":0,"o":"m 521 -17 b 111 401 281 -17 111 157 l 111 954 l 251 954 l 251 404 b 521 111 251 233 363 111 b 789 404 678 111 789 233 l 789 954 l 931 954 l 931 401 b 521 -17 931 157 760 -17 "},"Ú":{"ha":1040,"x_min":0,"x_max":0,"o":"m 564 1242 l 699 1214 l 499 1036 l 399 1036 m 521 -17 b 111 401 281 -17 111 157 l 111 954 l 251 954 l 251 404 b 521 111 251 233 363 111 b 789 404 678 111 789 233 l 789 954 l 931 954 l 931 401 b 521 -17 931 157 760 -17 "},"Û":{"ha":1040,"x_min":0,"x_max":0,"o":"m 461 1231 l 582 1231 l 725 1036 l 629 1036 l 521 1150 l 414 1036 l 319 1036 m 521 -17 b 111 401 281 -17 111 157 l 111 954 l 251 954 l 251 404 b 521 111 251 233 363 111 b 789 404 678 111 789 233 l 789 954 l 931 954 l 931 401 b 521 -17 931 157 760 -17 "},"Ü":{"ha":1040,"x_min":0,"x_max":0,"o":"m 383 1060 b 308 1135 340 1060 308 1093 b 383 1210 308 1174 340 1210 b 458 1135 425 1210 458 1174 b 383 1060 458 1093 425 1060 m 660 1060 b 585 1135 617 1060 585 1093 b 660 1210 585 1174 617 1210 b 735 1135 700 1210 735 1174 b 660 1060 735 1093 700 1060 m 521 -17 b 111 401 281 -17 111 157 l 111 954 l 251 954 l 251 404 b 521 111 251 233 363 111 b 789 404 678 111 789 233 l 789 954 l 931 954 l 931 401 b 521 -17 931 157 760 -17 "},"Ù":{"ha":1040,"x_min":0,"x_max":0,"o":"m 329 1214 l 463 1242 l 629 1036 l 529 1036 m 521 -17 b 111 401 281 -17 111 157 l 111 954 l 251 954 l 251 404 b 521 111 251 233 363 111 b 789 404 678 111 789 233 l 789 954 l 931 954 l 931 401 b 521 -17 931 157 760 -17 "},"Ű":{"ha":1040,"x_min":0,"x_max":0,"o":"m 469 1242 l 604 1214 l 404 1035 l 304 1035 m 764 1239 l 897 1211 l 697 1035 l 599 1035 m 521 -17 b 111 401 281 -17 111 157 l 111 954 l 251 954 l 251 404 b 521 111 251 233 363 111 b 789 404 678 111 789 233 l 789 954 l 931 954 l 931 401 b 521 -17 931 157 760 -17 "},"Ū":{"ha":1040,"x_min":0,"x_max":0,"o":"m 297 1146 l 744 1146 l 744 1056 l 297 1056 m 521 -17 b 111 401 281 -17 111 157 l 111 954 l 251 954 l 251 404 b 521 111 251 233 363 111 b 789 404 678 111 789 233 l 789 954 l 931 954 l 931 401 b 521 -17 931 157 760 -17 "},"Ų":{"ha":1040,"x_min":0,"x_max":0,"o":"m 931 954 l 931 401 b 521 -17 931 157 760 -17 l 510 -17 b 485 -74 494 -29 485 -50 b 560 -144 485 -118 513 -144 b 619 -121 586 -144 607 -135 l 661 -199 b 543 -240 631 -225 589 -240 b 390 -90 453 -240 390 -183 b 418 -6 390 -58 401 -28 b 111 401 233 36 111 193 l 111 954 l 251 954 l 251 404 b 521 111 251 233 363 111 b 789 404 678 111 789 233 l 789 954 "},"Ů":{"ha":1040,"x_min":0,"x_max":0,"o":"m 521 1050 b 372 1199 439 1050 372 1117 b 521 1346 372 1281 439 1346 b 668 1199 603 1346 668 1281 b 521 1050 668 1117 603 1050 m 521 1119 b 600 1199 564 1119 600 1156 b 521 1278 600 1242 564 1278 b 442 1199 478 1278 442 1242 b 521 1119 442 1156 478 1119 m 521 -17 b 111 401 281 -17 111 157 l 111 954 l 251 954 l 251 404 b 521 111 251 233 363 111 b 789 404 678 111 789 233 l 789 954 l 931 954 l 931 401 b 521 -17 931 157 760 -17 "},"V":{"ha":1047,"x_min":0,"x_max":0,"o":"m 1011 954 l 601 0 l 446 0 l 36 954 l 192 954 l 524 181 l 856 954 "},"W":{"ha":1500,"x_min":0,"x_max":0,"o":"m 43 954 l 199 954 l 433 226 l 672 954 l 828 954 l 1067 226 l 1301 954 l 1457 954 l 1143 0 l 1003 0 l 751 760 l 497 0 l 357 0 "},"Ẃ":{"ha":1500,"x_min":0,"x_max":0,"o":"m 864 1242 l 999 1214 l 799 1036 l 699 1036 m 43 954 l 199 954 l 433 226 l 672 954 l 828 954 l 1067 226 l 1301 954 l 1457 954 l 1143 0 l 1003 0 l 751 760 l 497 0 l 357 0 "},"Ŵ":{"ha":1500,"x_min":0,"x_max":0,"o":"m 692 1231 l 813 1231 l 956 1036 l 860 1036 l 751 1150 l 644 1036 l 550 1036 m 43 954 l 199 954 l 433 226 l 672 954 l 828 954 l 1067 226 l 1301 954 l 1457 954 l 1143 0 l 1003 0 l 751 760 l 497 0 l 357 0 "},"Ẅ":{"ha":1500,"x_min":0,"x_max":0,"o":"m 614 1060 b 539 1135 571 1060 539 1093 b 614 1210 539 1174 571 1210 b 689 1135 656 1210 689 1174 b 614 1060 689 1093 656 1060 m 890 1060 b 815 1135 847 1060 815 1093 b 890 1210 815 1174 847 1210 b 965 1135 931 1210 965 1174 b 890 1060 965 1093 931 1060 m 43 954 l 199 954 l 433 226 l 672 954 l 828 954 l 1067 226 l 1301 954 l 1457 954 l 1143 0 l 1003 0 l 751 760 l 497 0 l 357 0 "},"Ẁ":{"ha":1500,"x_min":0,"x_max":0,"o":"m 503 1214 l 636 1242 l 803 1036 l 703 1036 m 43 954 l 199 954 l 433 226 l 672 954 l 828 954 l 1067 226 l 1301 954 l 1457 954 l 1143 0 l 1003 0 l 751 760 l 497 0 l 357 0 "},"X":{"ha":975,"x_min":0,"x_max":0,"o":"m 572 478 l 932 0 l 761 0 l 486 365 l 211 0 l 43 0 l 403 476 l 43 954 l 213 954 l 488 589 l 764 954 l 932 954 "},"Y":{"ha":943,"x_min":0,"x_max":0,"o":"m 400 374 l 18 954 l 188 954 l 472 507 l 761 954 l 924 954 l 544 374 l 544 0 l 400 0 "},"Ý":{"ha":943,"x_min":0,"x_max":0,"o":"m 515 1242 l 650 1214 l 450 1036 l 350 1036 m 400 374 l 18 954 l 188 954 l 472 507 l 761 954 l 924 954 l 544 374 l 544 0 l 400 0 "},"Ŷ":{"ha":943,"x_min":0,"x_max":0,"o":"m 413 1231 l 533 1231 l 676 1036 l 581 1036 l 472 1150 l 365 1036 l 271 1036 m 400 374 l 18 954 l 188 954 l 472 507 l 761 954 l 924 954 l 544 374 l 544 0 l 400 0 "},"Ÿ":{"ha":943,"x_min":0,"x_max":0,"o":"m 335 1060 b 260 1135 292 1060 260 1093 b 335 1210 260 1174 292 1210 b 410 1135 376 1210 410 1174 b 335 1060 410 1093 376 1060 m 611 1060 b 536 1135 568 1060 536 1093 b 611 1210 536 1174 568 1210 b 686 1135 651 1210 686 1174 b 611 1060 686 1093 651 1060 m 400 374 l 18 954 l 188 954 l 472 507 l 761 954 l 924 954 l 544 374 l 544 0 l 400 0 "},"Ỳ":{"ha":943,"x_min":0,"x_max":0,"o":"m 281 1214 l 414 1242 l 581 1036 l 481 1036 m 400 374 l 18 954 l 188 954 l 472 507 l 761 954 l 924 954 l 544 374 l 544 0 l 400 0 "},"Z":{"ha":897,"x_min":0,"x_max":0,"o":"m 75 110 l 626 824 l 86 824 l 86 954 l 819 954 l 819 844 l 268 131 l 825 131 l 825 0 l 76 0 "},"Ź":{"ha":897,"x_min":0,"x_max":0,"o":"m 496 1242 l 631 1214 l 431 1036 l 331 1036 m 75 110 l 626 824 l 86 824 l 86 954 l 819 954 l 819 844 l 268 131 l 825 131 l 825 0 l 76 0 "},"Ž":{"ha":897,"x_min":0,"x_max":0,"o":"m 251 1231 l 346 1231 l 453 1117 l 561 1231 l 657 1231 l 514 1036 l 393 1036 m 75 110 l 626 824 l 86 824 l 86 954 l 819 954 l 819 844 l 268 131 l 825 131 l 825 0 l 76 0 "},"Ż":{"ha":897,"x_min":0,"x_max":0,"o":"m 453 1060 b 378 1135 410 1060 378 1093 b 453 1210 378 1174 410 1210 b 528 1135 494 1210 528 1174 b 453 1060 528 1093 494 1060 m 75 110 l 626 824 l 86 824 l 86 954 l 819 954 l 819 844 l 268 131 l 825 131 l 825 0 l 76 0 "},"a":{"ha":800,"x_min":0,"x_max":0,"o":"m 401 735 b 701 435 594 735 701 613 l 701 0 l 567 0 l 567 99 b 328 -17 514 24 415 -17 b 63 213 175 -17 63 72 b 350 451 63 356 192 451 b 567 413 421 451 497 436 l 567 435 b 382 621 567 525 525 621 b 179 561 311 621 242 593 l 129 663 b 401 735 232 714 322 735 m 354 92 b 567 225 443 92 543 136 l 567 321 b 371 349 508 339 442 349 b 194 217 275 349 194 294 b 354 92 194 139 264 92 "},"á":{"ha":800,"x_min":0,"x_max":0,"o":"m 388 800 l 288 800 l 453 1006 l 588 978 m 401 735 b 701 435 594 735 701 613 l 701 0 l 567 0 l 567 99 b 328 -17 514 24 415 -17 b 63 213 175 -17 63 72 b 350 451 63 356 192 451 b 567 413 421 451 497 436 l 567 435 b 382 621 567 525 525 621 b 179 561 311 621 242 593 l 129 663 b 401 735 232 714 322 735 m 354 92 b 567 225 443 92 543 136 l 567 321 b 371 349 508 339 442 349 b 194 217 275 349 194 294 b 354 92 194 139 264 92 "},"ă":{"ha":800,"x_min":0,"x_max":0,"o":"m 619 900 b 410 814 563 843 486 814 b 200 900 333 814 258 843 l 272 974 b 410 915 310 938 361 915 b 547 974 458 915 510 938 l 619 900 m 401 735 b 701 435 594 735 701 613 l 701 0 l 567 0 l 567 99 b 328 -17 514 24 415 -17 b 63 213 175 -17 63 72 b 350 451 63 356 192 451 b 567 413 421 451 497 436 l 567 435 b 382 621 567 525 525 621 b 179 561 311 621 242 593 l 129 663 b 401 735 232 714 322 735 m 354 92 b 567 225 443 92 543 136 l 567 321 b 371 349 508 339 442 349 b 194 217 275 349 194 294 b 354 92 194 139 264 92 "},"â":{"ha":800,"x_min":0,"x_max":0,"o":"m 303 800 l 208 800 l 350 994 l 471 994 l 614 800 l 518 800 l 410 914 m 401 735 b 701 435 594 735 701 613 l 701 0 l 567 0 l 567 99 b 328 -17 514 24 415 -17 b 63 213 175 -17 63 72 b 350 451 63 356 192 451 b 567 413 421 451 497 436 l 567 435 b 382 621 567 525 525 621 b 179 561 311 621 242 593 l 129 663 b 401 735 232 714 322 735 m 354 92 b 567 225 443 92 543 136 l 567 321 b 371 349 508 339 442 349 b 194 217 275 349 194 294 b 354 92 194 139 264 92 "},"ä":{"ha":800,"x_min":0,"x_max":0,"o":"m 272 824 b 197 899 229 824 197 857 b 272 974 197 938 229 974 b 347 899 314 974 347 938 b 272 824 347 857 314 824 m 549 824 b 474 899 506 824 474 857 b 549 974 474 938 506 974 b 624 899 589 974 624 938 b 549 824 624 857 589 824 m 401 735 b 701 435 594 735 701 613 l 701 0 l 567 0 l 567 99 b 328 -17 514 24 415 -17 b 63 213 175 -17 63 72 b 350 451 63 356 192 451 b 567 413 421 451 497 436 l 567 435 b 382 621 567 525 525 621 b 179 561 311 621 242 593 l 129 663 b 401 735 232 714 322 735 m 354 92 b 567 225 443 92 543 136 l 567 321 b 371 349 508 339 442 349 b 194 217 275 349 194 294 b 354 92 194 139 264 92 "},"à":{"ha":800,"x_min":0,"x_max":0,"o":"m 418 800 l 218 978 l 351 1006 l 518 800 m 401 735 b 701 435 594 735 701 613 l 701 0 l 567 0 l 567 99 b 328 -17 514 24 415 -17 b 63 213 175 -17 63 72 b 350 451 63 356 192 451 b 567 413 421 451 497 436 l 567 435 b 382 621 567 525 525 621 b 179 561 311 621 242 593 l 129 663 b 401 735 232 714 322 735 m 354 92 b 567 225 443 92 543 136 l 567 321 b 371 349 508 339 442 349 b 194 217 275 349 194 294 b 354 92 194 139 264 92 "},"ā":{"ha":800,"x_min":0,"x_max":0,"o":"m 633 819 l 186 819 l 186 910 l 633 910 m 401 735 b 701 435 594 735 701 613 l 701 0 l 567 0 l 567 99 b 328 -17 514 24 415 -17 b 63 213 175 -17 63 72 b 350 451 63 356 192 451 b 567 413 421 451 497 436 l 567 435 b 382 621 567 525 525 621 b 179 561 311 621 242 593 l 129 663 b 401 735 232 714 322 735 m 354 92 b 567 225 443 92 543 136 l 567 321 b 371 349 508 339 442 349 b 194 217 275 349 194 294 b 354 92 194 139 264 92 "},"ą":{"ha":800,"x_min":0,"x_max":0,"o":"m 803 -199 b 685 -240 772 -225 731 -240 b 532 -90 594 -240 532 -183 b 567 3 532 -54 546 -21 l 567 99 b 328 -17 514 24 415 -17 b 63 213 175 -17 63 72 b 350 451 63 356 192 451 b 567 413 421 451 497 436 l 567 435 b 382 621 567 525 525 621 b 179 561 311 621 242 593 l 129 663 b 401 735 232 714 322 735 b 701 435 594 735 701 613 l 701 0 b 626 -74 657 0 626 -31 b 701 -144 626 -118 654 -144 b 761 -121 728 -144 749 -135 m 354 92 b 567 225 443 92 543 136 l 567 321 b 371 349 508 339 442 349 b 194 217 275 349 194 294 b 354 92 194 139 264 92 "},"å":{"ha":800,"x_min":0,"x_max":0,"o":"m 410 814 b 261 963 328 814 261 881 b 410 1110 261 1044 328 1110 b 557 963 492 1110 557 1044 b 410 814 557 881 492 814 m 410 1042 b 331 963 367 1042 331 1006 b 410 883 331 919 367 883 b 489 963 453 883 489 919 b 410 1042 489 1006 453 1042 m 401 735 b 701 435 594 735 701 613 l 701 0 l 567 0 l 567 99 b 328 -17 514 24 415 -17 b 63 213 175 -17 63 72 b 350 451 63 356 192 451 b 567 413 421 451 497 436 l 567 435 b 382 621 567 525 525 621 b 179 561 311 621 242 593 l 129 663 b 401 735 232 714 322 735 m 354 92 b 567 225 443 92 543 136 l 567 321 b 371 349 508 339 442 349 b 194 217 275 349 194 294 b 354 92 194 139 264 92 "},"ã":{"ha":800,"x_min":0,"x_max":0,"o":"m 319 882 b 254 794 285 882 264 857 l 178 807 b 318 978 192 917 236 978 b 499 893 399 978 446 893 b 564 981 532 893 553 919 l 640 969 b 500 797 626 858 581 797 b 319 882 419 797 372 882 m 401 735 b 701 435 594 735 701 613 l 701 0 l 567 0 l 567 99 b 328 -17 514 24 415 -17 b 63 213 175 -17 63 72 b 350 451 63 356 192 451 b 567 413 421 451 497 436 l 567 435 b 382 621 567 525 525 621 b 179 561 311 621 242 593 l 129 663 b 401 735 232 714 322 735 m 354 92 b 567 225 443 92 543 136 l 567 321 b 371 349 508 339 442 349 b 194 217 275 349 194 294 b 354 92 194 139 264 92 "},"æ":{"ha":1331,"x_min":0,"x_max":0,"o":"m 935 106 b 1140 183 1010 106 1097 139 l 1226 94 b 936 -17 1163 26 1038 -17 b 640 132 817 -17 708 39 b 347 -17 581 42 474 -17 b 63 213 171 -17 63 69 b 350 451 63 356 192 451 b 567 413 421 451 497 436 l 567 435 b 382 621 567 525 525 621 b 179 561 311 621 242 593 l 129 663 b 396 735 232 714 317 735 b 650 604 518 735 604 685 b 925 735 715 685 814 735 b 1271 311 1144 735 1271 568 l 706 311 b 935 106 724 192 811 106 m 931 613 b 707 421 819 613 729 538 l 1138 421 b 931 613 1122 532 1054 613 m 365 92 b 567 271 476 92 567 172 l 567 321 b 371 349 508 339 442 349 b 194 217 275 349 194 294 b 365 92 194 139 260 92 "},"b":{"ha":896,"x_min":0,"x_max":0,"o":"m 499 735 b 829 360 688 735 829 579 b 499 -17 829 139 688 -17 b 243 125 388 -17 299 36 l 243 0 l 107 0 l 107 971 l 243 971 l 243 594 b 499 735 299 682 388 735 m 465 103 b 690 360 597 103 690 210 b 465 615 690 510 597 615 b 243 360 336 615 243 510 b 465 103 243 210 336 103 "},"c":{"ha":756,"x_min":0,"x_max":0,"o":"m 439 -17 b 61 360 235 -17 61 156 b 440 735 61 564 235 735 b 704 624 543 735 636 692 l 611 538 b 439 615 568 586 506 615 b 200 360 308 615 200 499 b 440 103 200 219 308 103 b 615 183 507 103 571 133 l 708 99 b 439 -17 639 28 546 -17 "},"ć":{"ha":756,"x_min":0,"x_max":0,"o":"m 454 1006 l 589 978 l 389 800 l 289 800 m 439 -17 b 61 360 235 -17 61 156 b 440 735 61 564 235 735 b 704 624 543 735 636 692 l 611 538 b 439 615 568 586 506 615 b 200 360 308 615 200 499 b 440 103 200 219 308 103 b 615 183 507 103 571 133 l 708 99 b 439 -17 639 28 546 -17 "},"č":{"ha":756,"x_min":0,"x_max":0,"o":"m 210 994 l 304 994 l 411 881 l 519 994 l 615 994 l 472 800 l 351 800 m 439 -17 b 61 360 235 -17 61 156 b 440 735 61 564 235 735 b 704 624 543 735 636 692 l 611 538 b 439 615 568 586 506 615 b 200 360 308 615 200 499 b 440 103 200 219 308 103 b 615 183 507 103 571 133 l 708 99 b 439 -17 639 28 546 -17 "},"ç":{"ha":756,"x_min":0,"x_max":0,"o":"m 708 99 b 469 -15 646 35 563 -8 l 449 -61 l 460 -61 b 558 -154 517 -61 558 -100 b 417 -269 558 -224 497 -269 b 292 -229 368 -269 321 -251 l 321 -164 b 410 -196 349 -186 379 -196 b 475 -147 447 -196 475 -175 b 424 -103 475 -122 458 -103 b 379 -117 408 -103 392 -108 l 354 -92 l 388 -12 b 61 360 206 14 61 174 b 440 735 61 564 235 735 b 704 624 543 735 636 692 l 611 538 b 439 615 568 586 506 615 b 200 360 308 615 200 499 b 440 103 200 219 308 103 b 615 183 507 103 571 133 l 708 99 "},"d":{"ha":896,"x_min":0,"x_max":0,"o":"m 789 971 l 789 0 l 653 0 l 653 125 b 397 -17 597 36 508 -17 b 67 360 208 -17 67 139 b 397 735 67 579 208 735 b 653 594 508 735 597 682 l 653 971 m 431 103 b 653 360 560 103 653 210 b 431 615 653 510 560 615 b 206 360 299 615 206 510 b 431 103 206 210 299 103 "},"ð":{"ha":874,"x_min":0,"x_max":0,"o":"m 554 849 b 797 379 715 699 797 560 b 439 -17 797 147 650 -17 b 76 346 226 -17 76 133 b 396 690 76 547 210 690 b 622 582 492 690 564 650 b 442 797 582 660 518 731 l 279 725 l 239 818 l 351 868 b 243 944 317 894 281 919 l 375 999 b 471 922 408 972 440 947 l 604 982 l 646 889 l 554 849 m 439 104 b 658 340 568 104 658 201 b 435 574 658 469 572 574 b 214 342 306 574 214 478 b 439 104 214 203 307 104 "},"ď":{"ha":896,"x_min":0,"x_max":0,"o":"m 653 971 l 789 971 l 789 0 l 653 0 l 653 125 b 397 -17 597 36 508 -17 b 67 360 208 -17 67 139 b 397 735 67 579 208 735 b 653 594 508 735 597 682 m 964 971 b 1046 864 1014 971 1046 926 b 947 679 1046 811 1019 764 l 899 714 b 961 822 932 749 953 785 b 889 896 922 822 889 856 b 964 971 889 936 922 971 m 431 103 b 653 360 560 103 653 210 b 431 615 653 510 560 615 b 206 360 299 615 206 510 b 431 103 206 210 299 103 "},"đ":{"ha":926,"x_min":0,"x_max":0,"o":"m 878 807 l 789 807 l 789 0 l 653 0 l 653 125 b 397 -17 597 36 508 -17 b 67 360 208 -17 67 139 b 397 735 67 579 208 735 b 653 594 508 735 597 682 l 653 807 l 425 807 l 425 888 l 653 888 l 653 971 l 789 971 l 789 888 l 878 888 m 431 103 b 653 360 560 103 653 210 b 431 615 653 510 560 615 b 206 360 299 615 206 510 b 431 103 206 210 299 103 "},"e":{"ha":825,"x_min":0,"x_max":0,"o":"m 429 106 b 635 183 504 106 592 139 l 721 94 b 431 -17 657 26 532 -17 b 61 361 231 -17 61 140 b 419 735 61 576 221 735 b 765 311 639 735 765 568 l 200 311 b 429 106 218 192 306 106 m 425 613 b 201 421 314 613 224 538 l 632 421 b 425 613 617 532 549 613 "},"é":{"ha":825,"x_min":0,"x_max":0,"o":"m 397 800 l 297 800 l 463 1006 l 597 978 m 429 106 b 635 183 504 106 592 139 l 721 94 b 431 -17 657 26 532 -17 b 61 361 231 -17 61 140 b 419 735 61 576 221 735 b 765 311 639 735 765 568 l 200 311 b 429 106 218 192 306 106 m 425 613 b 201 421 314 613 224 538 l 632 421 b 425 613 617 532 549 613 "},"ě":{"ha":825,"x_min":0,"x_max":0,"o":"m 360 800 l 218 994 l 313 994 l 419 881 l 528 994 l 624 994 l 481 800 m 429 106 b 635 183 504 106 592 139 l 721 94 b 431 -17 657 26 532 -17 b 61 361 231 -17 61 140 b 419 735 61 576 221 735 b 765 311 639 735 765 568 l 200 311 b 429 106 218 192 306 106 m 425 613 b 201 421 314 613 224 538 l 632 421 b 425 613 617 532 549 613 "},"ê":{"ha":825,"x_min":0,"x_max":0,"o":"m 313 800 l 218 800 l 360 994 l 481 994 l 624 800 l 528 800 l 419 914 m 429 106 b 635 183 504 106 592 139 l 721 94 b 431 -17 657 26 532 -17 b 61 361 231 -17 61 140 b 419 735 61 576 221 735 b 765 311 639 735 765 568 l 200 311 b 429 106 218 192 306 106 m 425 613 b 201 421 314 613 224 538 l 632 421 b 425 613 617 532 549 613 "},"ë":{"ha":825,"x_min":0,"x_max":0,"o":"m 282 824 b 207 899 239 824 207 857 b 282 974 207 938 239 974 b 357 899 324 974 357 938 b 282 824 357 857 324 824 m 558 824 b 483 899 515 824 483 857 b 558 974 483 938 515 974 b 633 899 599 974 633 938 b 558 824 633 857 599 824 m 429 106 b 635 183 504 106 592 139 l 721 94 b 431 -17 657 26 532 -17 b 61 361 231 -17 61 140 b 419 735 61 576 221 735 b 765 311 639 735 765 568 l 200 311 b 429 106 218 192 306 106 m 425 613 b 201 421 314 613 224 538 l 632 421 b 425 613 617 532 549 613 "},"ė":{"ha":825,"x_min":0,"x_max":0,"o":"m 419 824 b 344 899 376 824 344 857 b 419 974 344 938 376 974 b 494 899 461 974 494 938 b 419 824 494 857 461 824 m 429 106 b 635 183 504 106 592 139 l 721 94 b 431 -17 657 26 532 -17 b 61 361 231 -17 61 140 b 419 735 61 576 221 735 b 765 311 639 735 765 568 l 200 311 b 429 106 218 192 306 106 m 425 613 b 201 421 314 613 224 538 l 632 421 b 425 613 617 532 549 613 "},"ẹ":{"ha":825,"x_min":0,"x_max":0,"o":"m 429 106 b 635 183 504 106 592 139 l 721 94 b 431 -17 657 26 532 -17 b 61 361 231 -17 61 140 b 419 735 61 576 221 735 b 765 311 639 735 765 568 l 200 311 b 429 106 218 192 306 106 m 425 613 b 201 421 314 613 224 538 l 632 421 b 425 613 617 532 549 613 m 418 -107 b 493 -182 460 -107 493 -143 b 418 -257 493 -224 460 -257 b 343 -182 375 -257 343 -224 b 418 -107 343 -143 375 -107 "},"è":{"ha":825,"x_min":0,"x_max":0,"o":"m 428 800 l 228 978 l 361 1006 l 528 800 m 429 106 b 635 183 504 106 592 139 l 721 94 b 431 -17 657 26 532 -17 b 61 361 231 -17 61 140 b 419 735 61 576 221 735 b 765 311 639 735 765 568 l 200 311 b 429 106 218 192 306 106 m 425 613 b 201 421 314 613 224 538 l 632 421 b 425 613 617 532 549 613 "},"ē":{"ha":825,"x_min":0,"x_max":0,"o":"m 643 819 l 196 819 l 196 910 l 643 910 m 429 106 b 635 183 504 106 592 139 l 721 94 b 431 -17 657 26 532 -17 b 61 361 231 -17 61 140 b 419 735 61 576 221 735 b 765 311 639 735 765 568 l 200 311 b 429 106 218 192 306 106 m 425 613 b 201 421 314 613 224 538 l 632 421 b 425 613 617 532 549 613 "},"ę":{"ha":825,"x_min":0,"x_max":0,"o":"m 721 94 b 563 4 683 54 625 24 b 543 -47 550 -8 543 -26 b 618 -118 543 -92 571 -118 b 678 -94 644 -118 665 -108 l 719 -172 b 601 -214 689 -199 647 -214 b 449 -64 511 -214 449 -157 b 457 -15 449 -47 451 -31 b 431 -17 449 -17 439 -17 b 61 361 231 -17 61 140 b 419 735 61 576 221 735 b 765 311 639 735 765 568 l 200 311 b 429 106 218 192 306 106 b 635 183 504 106 592 139 l 721 94 m 425 613 b 201 421 314 613 224 538 l 632 421 b 425 613 617 532 549 613 "},"ẽ":{"ha":825,"x_min":0,"x_max":0,"o":"m 329 882 b 264 794 294 882 274 857 l 188 807 b 328 978 201 917 246 978 b 508 893 408 978 456 893 b 574 981 542 893 563 919 l 650 969 b 510 797 636 858 590 797 b 329 882 429 797 382 882 m 429 106 b 635 183 504 106 592 139 l 721 94 b 431 -17 657 26 532 -17 b 61 361 231 -17 61 140 b 419 735 61 576 221 735 b 765 311 639 735 765 568 l 200 311 b 429 106 218 192 306 106 m 425 613 b 201 421 314 613 224 538 l 632 421 b 425 613 617 532 549 613 "},"f":{"ha":500,"x_min":0,"x_max":0,"o":"m 289 718 l 458 718 l 458 601 l 289 601 l 289 0 l 154 0 l 154 601 l 46 601 l 46 718 l 154 718 l 154 804 b 343 1000 154 919 232 1000 b 486 949 394 1000 447 981 l 436 857 b 363 883 421 872 393 883 b 289 797 322 883 289 847 "},"g":{"ha":889,"x_min":0,"x_max":0,"o":"m 783 718 l 783 76 b 419 -239 783 -108 632 -239 b 119 -143 299 -239 188 -199 l 174 -40 b 399 -119 226 -90 313 -119 b 646 79 553 -119 646 -46 l 646 183 b 392 53 589 101 500 53 b 65 394 203 53 65 194 b 392 735 65 594 203 735 b 646 603 500 735 592 683 l 646 718 m 426 172 b 646 394 554 172 646 264 b 426 615 646 524 554 615 b 208 394 299 615 208 524 b 426 172 208 264 299 172 "},"ğ":{"ha":889,"x_min":0,"x_max":0,"o":"m 667 900 b 457 814 610 843 533 814 b 247 900 381 814 306 843 l 319 974 b 457 915 357 938 408 915 b 594 974 506 915 557 938 l 667 900 m 783 718 l 783 76 b 419 -239 783 -108 632 -239 b 119 -143 299 -239 188 -199 l 174 -40 b 399 -119 226 -90 313 -119 b 646 79 553 -119 646 -46 l 646 183 b 392 53 589 101 500 53 b 65 394 203 53 65 194 b 392 735 65 594 203 735 b 646 603 500 735 592 683 l 646 718 m 426 172 b 646 394 554 172 646 264 b 426 615 646 524 554 615 b 208 394 299 615 208 524 b 426 172 208 264 299 172 "},"ģ":{"ha":889,"x_min":0,"x_max":0,"o":"m 436 824 b 354 931 386 824 354 868 b 453 1115 354 983 381 1031 l 501 1081 b 439 972 468 1046 447 1010 b 511 899 478 972 511 939 b 436 824 511 858 478 824 m 783 718 l 783 76 b 419 -239 783 -108 632 -239 b 119 -143 299 -239 188 -199 l 174 -40 b 399 -119 226 -90 313 -119 b 646 79 553 -119 646 -46 l 646 183 b 392 53 589 101 500 53 b 65 394 203 53 65 194 b 392 735 65 594 203 735 b 646 603 500 735 592 683 l 646 718 m 426 172 b 646 394 554 172 646 264 b 426 615 646 524 554 615 b 208 394 299 615 208 524 b 426 172 208 264 299 172 "},"h":{"ha":832,"x_min":0,"x_max":0,"o":"m 465 735 b 735 457 624 735 735 619 l 735 0 l 600 0 l 600 433 b 435 615 600 540 532 615 b 236 446 326 615 236 539 l 236 0 l 100 0 l 100 971 l 236 971 l 236 611 b 465 735 279 683 367 735 "},"i":{"ha":335,"x_min":0,"x_max":0,"o":"m 168 838 b 85 921 121 838 85 876 b 168 1003 85 964 121 1003 b 250 921 213 1003 250 964 b 168 838 250 876 213 838 m 99 718 l 236 718 l 236 0 l 99 0 "},"ı":{"ha":335,"x_min":0,"x_max":0,"o":"m 99 718 l 236 718 l 236 0 l 99 0 "},"í":{"ha":335,"x_min":0,"x_max":0,"o":"m 282 1006 l 417 978 l 217 800 l 117 800 m 99 718 l 236 718 l 236 0 l 99 0 "},"î":{"ha":335,"x_min":0,"x_max":0,"o":"m 108 994 l 229 994 l 372 800 l 276 800 l 168 914 l 61 800 l -33 800 m 99 718 l 236 718 l 236 0 l 99 0 "},"ï":{"ha":335,"x_min":0,"x_max":0,"o":"m 31 824 b -44 899 -12 824 -44 857 b 31 974 -44 938 -12 974 b 106 899 72 974 106 938 b 31 824 106 857 72 824 m 307 824 b 232 899 264 824 232 857 b 307 974 232 938 264 974 b 382 899 347 974 382 938 b 307 824 382 857 347 824 m 99 718 l 236 718 l 236 0 l 99 0 "},"ì":{"ha":335,"x_min":0,"x_max":0,"o":"m -81 978 l 53 1006 l 219 800 l 119 800 m 99 718 l 236 718 l 236 0 l 99 0 "},"ī":{"ha":335,"x_min":0,"x_max":0,"o":"m -56 910 l 392 910 l 392 819 l -56 819 m 99 718 l 236 718 l 236 0 l 99 0 "},"į":{"ha":335,"x_min":0,"x_max":0,"o":"m 168 824 b 93 899 125 824 93 857 b 168 974 93 938 125 974 b 243 899 210 974 243 938 b 168 824 243 857 210 824 m 269 -199 b 151 -240 239 -225 197 -240 b -1 -90 61 -240 -1 -183 b 72 32 -1 -35 31 13 l 99 24 l 99 718 l 236 718 l 236 0 l 168 0 b 93 -74 124 0 93 -31 b 168 -144 93 -118 121 -144 b 228 -121 194 -144 215 -135 "},"j":{"ha":335,"x_min":0,"x_max":0,"o":"m 168 838 b 85 921 121 838 85 876 b 168 1003 85 964 121 1003 b 250 921 213 1003 250 964 b 168 838 250 876 213 838 m 44 -247 b -78 -222 1 -247 -49 -236 l -60 -115 b 24 -129 -39 -124 -4 -129 b 99 -43 68 -129 99 -93 l 99 718 l 236 718 l 236 -50 b 44 -247 236 -165 157 -247 "},"ȷ":{"ha":335,"x_min":0,"x_max":0,"o":"m 44 -247 b -78 -222 1 -247 -49 -236 l -60 -115 b 24 -129 -39 -124 -4 -129 b 99 -43 68 -129 99 -93 l 99 718 l 236 718 l 236 -50 b 44 -247 236 -165 157 -247 "},"k":{"ha":767,"x_min":0,"x_max":0,"o":"m 443 393 l 739 0 l 575 0 l 350 301 l 235 185 l 235 0 l 99 0 l 99 971 l 235 971 l 235 351 l 586 718 l 753 718 "},"ķ":{"ha":767,"x_min":0,"x_max":0,"o":"m 443 393 l 739 0 l 575 0 l 350 301 l 235 185 l 235 0 l 99 0 l 99 971 l 235 971 l 235 351 l 586 718 l 753 718 m 393 -97 b 475 -204 443 -97 475 -142 b 376 -389 475 -257 449 -304 l 328 -354 b 390 -246 361 -319 382 -283 b 318 -172 351 -246 318 -212 b 393 -97 318 -132 351 -97 "},"l":{"ha":336,"x_min":0,"x_max":0,"o":"m 100 971 l 236 971 l 236 0 l 100 0 "},"ĺ":{"ha":336,"x_min":0,"x_max":0,"o":"m 283 1258 l 418 1231 l 218 1053 l 118 1053 m 100 971 l 236 971 l 236 0 l 100 0 "},"ľ":{"ha":336,"x_min":0,"x_max":0,"o":"m 100 971 l 236 971 l 236 0 l 100 0 m 346 714 b 408 822 379 749 400 785 b 336 896 369 822 336 856 b 411 971 336 936 369 971 b 493 864 461 971 493 926 b 394 679 493 811 467 764 "},"ł":{"ha":447,"x_min":0,"x_max":0,"o":"m 401 490 l 289 433 l 289 0 l 153 0 l 153 364 l 46 310 l 46 439 l 153 493 l 153 971 l 289 971 l 289 564 l 401 621 "},"m":{"ha":1258,"x_min":0,"x_max":0,"o":"m 903 735 b 1161 457 1053 735 1161 619 l 1161 0 l 1026 0 l 1026 436 b 874 615 1026 542 964 615 b 699 449 771 615 699 547 l 699 0 l 564 0 l 564 436 b 411 615 564 542 501 615 b 236 449 308 615 236 547 l 236 0 l 99 0 l 99 718 l 236 718 l 236 618 b 439 735 272 689 347 735 b 669 590 543 735 628 679 b 903 735 703 679 794 735 "},"n":{"ha":832,"x_min":0,"x_max":0,"o":"m 465 735 b 735 457 624 735 735 619 l 735 0 l 600 0 l 600 433 b 435 615 600 540 532 615 b 238 465 335 615 249 550 l 238 0 l 100 0 l 100 718 l 238 718 l 238 614 b 465 735 281 685 368 735 "},"ń":{"ha":832,"x_min":0,"x_max":0,"o":"m 415 800 l 315 800 l 481 1006 l 615 978 m 465 735 b 735 457 624 735 735 619 l 735 0 l 600 0 l 600 433 b 435 615 600 540 532 615 b 238 465 335 615 249 550 l 238 0 l 100 0 l 100 718 l 238 718 l 238 614 b 465 735 281 685 368 735 "},"ň":{"ha":832,"x_min":0,"x_max":0,"o":"m 378 800 l 236 994 l 331 994 l 438 881 l 546 994 l 642 994 l 499 800 m 465 735 b 735 457 624 735 735 619 l 735 0 l 600 0 l 600 433 b 435 615 600 540 532 615 b 238 465 335 615 249 550 l 238 0 l 100 0 l 100 718 l 238 718 l 238 614 b 465 735 281 685 368 735 "},"ņ":{"ha":832,"x_min":0,"x_max":0,"o":"m 465 735 b 735 457 624 735 735 619 l 735 0 l 600 0 l 600 433 b 435 615 600 540 532 615 b 238 465 335 615 249 550 l 238 0 l 100 0 l 100 718 l 238 718 l 238 614 b 465 735 281 685 368 735 m 438 -97 b 519 -204 488 -97 519 -142 b 421 -389 519 -257 493 -304 l 372 -354 b 435 -246 406 -319 426 -283 b 363 -172 396 -246 363 -212 b 438 -97 363 -132 396 -97 "},"ñ":{"ha":832,"x_min":0,"x_max":0,"o":"m 347 882 b 282 794 313 882 292 857 l 206 807 b 346 978 219 917 264 978 b 526 893 426 978 474 893 b 592 981 560 893 581 919 l 668 969 b 528 797 654 858 608 797 b 347 882 447 797 400 882 m 465 735 b 735 457 624 735 735 619 l 735 0 l 600 0 l 600 433 b 435 615 600 540 532 615 b 238 465 335 615 249 550 l 238 0 l 100 0 l 100 718 l 238 718 l 238 614 b 465 735 281 685 368 735 "},"o":{"ha":878,"x_min":0,"x_max":0,"o":"m 440 -17 b 61 360 235 -17 61 156 b 440 735 61 564 235 735 b 817 360 644 735 817 564 b 440 -17 817 156 644 -17 m 440 103 b 679 360 569 103 679 219 b 440 615 679 499 569 615 b 199 360 308 615 199 499 b 440 103 199 219 308 103 "},"ó":{"ha":878,"x_min":0,"x_max":0,"o":"m 483 1006 l 618 978 l 418 800 l 318 800 m 440 -17 b 61 360 235 -17 61 156 b 440 735 61 564 235 735 b 817 360 644 735 817 564 b 440 -17 817 156 644 -17 m 440 103 b 679 360 569 103 679 219 b 440 615 679 499 569 615 b 199 360 308 615 199 499 b 440 103 199 219 308 103 "},"ô":{"ha":878,"x_min":0,"x_max":0,"o":"m 381 994 l 501 994 l 644 800 l 549 800 l 440 914 l 333 800 l 239 800 m 440 -17 b 61 360 235 -17 61 156 b 440 735 61 564 235 735 b 817 360 644 735 817 564 b 440 -17 817 156 644 -17 m 440 103 b 679 360 569 103 679 219 b 440 615 679 499 569 615 b 199 360 308 615 199 499 b 440 103 199 219 308 103 "},"ö":{"ha":878,"x_min":0,"x_max":0,"o":"m 303 824 b 228 899 260 824 228 857 b 303 974 228 938 260 974 b 378 899 344 974 378 938 b 303 824 378 857 344 824 m 579 824 b 504 899 536 824 504 857 b 579 974 504 938 536 974 b 654 899 619 974 654 938 b 579 824 654 857 619 824 m 440 -17 b 61 360 235 -17 61 156 b 440 735 61 564 235 735 b 817 360 644 735 817 564 b 440 -17 817 156 644 -17 m 440 103 b 679 360 569 103 679 219 b 440 615 679 499 569 615 b 199 360 308 615 199 499 b 440 103 199 219 308 103 "},"ò":{"ha":878,"x_min":0,"x_max":0,"o":"m 249 978 l 382 1006 l 549 800 l 449 800 m 440 -17 b 61 360 235 -17 61 156 b 440 735 61 564 235 735 b 817 360 644 735 817 564 b 440 -17 817 156 644 -17 m 440 103 b 679 360 569 103 679 219 b 440 615 679 499 569 615 b 199 360 308 615 199 499 b 440 103 199 219 308 103 "},"ő":{"ha":878,"x_min":0,"x_max":0,"o":"m 400 1006 l 535 978 l 335 799 l 235 799 m 694 1003 l 828 975 l 628 799 l 529 799 m 440 -17 b 61 360 235 -17 61 156 b 440 735 61 564 235 735 b 817 360 644 735 817 564 b 440 -17 817 156 644 -17 m 440 103 b 679 360 569 103 679 219 b 440 615 679 499 569 615 b 199 360 308 615 199 499 b 440 103 199 219 308 103 "},"ō":{"ha":878,"x_min":0,"x_max":0,"o":"m 217 910 l 664 910 l 664 819 l 217 819 m 440 -17 b 61 360 235 -17 61 156 b 440 735 61 564 235 735 b 817 360 644 735 817 564 b 440 -17 817 156 644 -17 m 440 103 b 679 360 569 103 679 219 b 440 615 679 499 569 615 b 199 360 308 615 199 499 b 440 103 199 219 308 103 "},"ø":{"ha":878,"x_min":0,"x_max":0,"o":"m 719 610 b 817 360 779 542 817 454 b 440 -17 817 156 644 -17 b 236 44 365 -17 294 6 l 197 0 l 69 0 l 161 107 b 61 360 100 175 61 264 b 440 735 61 564 235 735 b 646 672 515 735 586 711 l 685 718 l 813 718 l 719 610 m 199 360 b 247 207 199 303 217 250 l 564 578 b 440 615 528 601 485 615 b 199 360 308 615 199 499 m 440 103 b 679 360 569 103 679 219 b 633 508 679 415 663 467 l 317 140 b 440 103 353 117 396 103 "},"õ":{"ha":878,"x_min":0,"x_max":0,"o":"m 531 797 b 350 882 450 797 403 882 b 285 794 315 882 294 857 l 208 807 b 349 978 222 917 267 978 b 529 893 429 978 476 893 b 594 981 563 893 583 919 l 671 969 b 531 797 657 858 611 797 m 440 -17 b 61 360 235 -17 61 156 b 440 735 61 564 235 735 b 817 360 644 735 817 564 b 440 -17 817 156 644 -17 m 440 103 b 679 360 569 103 679 219 b 440 615 679 499 569 615 b 199 360 308 615 199 499 b 440 103 199 219 308 103 "},"œ":{"ha":1446,"x_min":0,"x_max":0,"o":"m 1050 106 b 1256 183 1125 106 1213 139 l 1342 94 b 1051 -17 1278 26 1153 -17 b 746 144 926 -17 814 44 b 440 -17 678 47 565 -17 b 61 360 235 -17 61 156 b 440 735 61 564 235 735 b 744 578 564 735 676 672 b 1040 735 810 674 918 735 b 1386 311 1260 735 1386 568 l 821 311 b 1050 106 839 192 926 106 m 440 103 b 679 360 569 103 679 219 b 440 615 679 499 569 615 b 199 360 308 615 199 499 b 440 103 199 219 308 103 m 1046 613 b 822 421 935 613 844 538 l 1253 421 b 1046 613 1238 532 1169 613 "},"p":{"ha":896,"x_min":0,"x_max":0,"o":"m 499 735 b 829 360 688 735 829 579 b 499 -17 829 139 688 -17 b 243 125 388 -17 299 36 l 243 -239 l 107 -239 l 107 718 l 243 718 l 243 594 b 499 735 299 682 388 735 m 465 103 b 690 360 597 103 690 210 b 465 615 690 510 597 615 b 243 360 336 615 243 510 b 465 103 243 210 336 103 "},"þ":{"ha":896,"x_min":0,"x_max":0,"o":"m 499 735 b 829 360 688 735 829 579 b 499 -17 829 139 688 -17 b 243 125 388 -17 299 36 l 243 -239 l 107 -239 l 107 971 l 243 971 l 243 594 b 499 735 299 682 388 735 m 465 103 b 690 360 597 103 690 210 b 465 615 690 510 597 615 b 243 360 336 615 243 510 b 465 103 243 210 336 103 "},"q":{"ha":896,"x_min":0,"x_max":0,"o":"m 789 718 l 789 -239 l 653 -239 l 653 125 b 397 -17 597 36 508 -17 b 67 360 208 -17 67 139 b 397 735 67 579 208 735 b 653 594 508 735 597 682 l 653 718 m 431 103 b 653 360 560 103 653 210 b 431 615 653 510 560 615 b 206 360 299 615 206 510 b 431 103 206 210 299 103 "},"r":{"ha":546,"x_min":0,"x_max":0,"o":"m 244 581 b 511 735 290 675 388 735 l 511 615 b 244 408 363 615 257 533 l 244 0 l 107 0 l 107 718 l 244 718 l 244 581 "},"ŕ":{"ha":546,"x_min":0,"x_max":0,"o":"m 292 800 l 192 800 l 357 1006 l 492 978 m 244 581 b 511 735 290 675 388 735 l 511 615 b 244 408 363 615 257 533 l 244 0 l 107 0 l 107 718 l 244 718 l 244 581 "},"ř":{"ha":546,"x_min":0,"x_max":0,"o":"m 254 800 l 113 994 l 207 994 l 314 881 l 422 994 l 518 994 l 375 800 m 244 581 b 511 735 290 675 388 735 l 511 615 b 244 408 363 615 257 533 l 244 0 l 107 0 l 107 718 l 244 718 l 244 581 "},"ŗ":{"ha":546,"x_min":0,"x_max":0,"o":"m 244 581 b 511 735 290 675 388 735 l 511 615 b 244 408 363 615 257 533 l 244 0 l 107 0 l 107 718 l 244 718 l 244 581 m 233 -97 b 315 -204 283 -97 315 -142 b 217 -389 315 -257 289 -304 l 168 -354 b 231 -246 201 -319 222 -283 b 158 -172 192 -246 158 -212 b 233 -97 158 -132 192 -97 "},"s":{"ha":692,"x_min":0,"x_max":0,"o":"m 360 -17 b 53 90 254 -17 139 21 l 118 189 b 361 101 194 133 276 101 b 497 194 442 101 497 139 b 335 307 497 261 424 282 b 88 517 169 353 88 400 b 349 735 86 649 196 735 b 614 651 442 735 536 703 l 553 550 b 349 617 483 593 411 617 b 222 532 278 617 222 586 b 388 422 222 476 267 460 b 632 206 506 388 632 349 b 360 -17 632 69 517 -17 "},"ś":{"ha":692,"x_min":0,"x_max":0,"o":"m 392 1006 l 526 978 l 326 800 l 226 800 m 360 -17 b 53 90 254 -17 139 21 l 118 189 b 361 101 194 133 276 101 b 497 194 442 101 497 139 b 335 307 497 261 424 282 b 88 517 169 353 88 400 b 349 735 86 649 196 735 b 614 651 442 735 536 703 l 553 550 b 349 617 483 593 411 617 b 222 532 278 617 222 586 b 388 422 222 476 267 460 b 632 206 506 388 632 349 b 360 -17 632 69 517 -17 "},"š":{"ha":692,"x_min":0,"x_max":0,"o":"m 147 994 l 242 994 l 349 881 l 457 994 l 553 994 l 410 800 l 289 800 m 360 -17 b 53 90 254 -17 139 21 l 118 189 b 361 101 194 133 276 101 b 497 194 442 101 497 139 b 335 307 497 261 424 282 b 88 517 169 353 88 400 b 349 735 86 649 196 735 b 614 651 442 735 536 703 l 553 550 b 349 617 483 593 411 617 b 222 532 278 617 222 586 b 388 422 222 476 267 460 b 632 206 506 388 632 349 b 360 -17 632 69 517 -17 "},"ş":{"ha":692,"x_min":0,"x_max":0,"o":"m 632 206 b 389 -15 632 78 531 -6 l 369 -61 l 381 -61 b 479 -154 438 -61 479 -100 b 338 -269 479 -224 418 -269 b 213 -229 289 -269 242 -251 l 242 -164 b 331 -196 269 -186 300 -196 b 396 -147 368 -196 396 -175 b 344 -103 396 -122 379 -103 b 300 -117 329 -103 313 -108 l 275 -92 l 307 -14 b 53 90 217 -4 125 32 l 118 189 b 361 101 194 133 276 101 b 497 194 442 101 497 139 b 335 307 497 261 424 282 b 88 517 169 353 88 400 b 349 735 86 649 196 735 b 614 651 442 735 536 703 l 553 550 b 349 617 483 593 411 617 b 222 532 278 617 222 586 b 388 422 222 476 267 460 b 632 206 506 388 632 349 "},"ß":{"ha":817,"x_min":0,"x_max":0,"o":"m 107 728 b 414 986 107 879 235 986 b 718 728 593 986 718 879 b 583 506 718 628 669 554 b 757 260 693 451 757 365 b 464 0 757 107 635 0 l 350 0 l 350 124 l 433 124 b 614 281 539 124 614 189 b 433 438 614 372 539 438 l 350 438 l 350 557 l 411 557 b 575 704 507 557 575 625 b 411 853 575 790 508 853 b 247 699 317 853 247 789 l 247 0 l 107 0 "},"t":{"ha":526,"x_min":0,"x_max":0,"o":"m 486 35 b 343 -17 447 3 394 -17 b 154 179 232 -17 154 64 l 154 601 l 46 601 l 46 718 l 154 718 l 154 915 l 289 915 l 289 718 l 458 718 l 458 601 l 289 601 l 289 189 b 363 103 289 139 322 103 b 436 129 393 103 421 114 "},"ť":{"ha":526,"x_min":0,"x_max":0,"o":"m 633 971 b 715 864 683 971 715 926 b 617 679 715 811 689 764 l 568 714 b 631 822 601 749 622 785 b 558 896 592 822 558 856 b 633 971 558 936 592 971 m 363 103 b 436 129 393 103 421 114 l 486 35 b 343 -17 447 3 394 -17 b 154 179 232 -17 154 64 l 154 601 l 46 601 l 46 718 l 154 718 l 154 915 l 289 915 l 289 718 l 458 718 l 458 601 l 289 601 l 289 189 b 363 103 289 139 322 103 "},"ţ":{"ha":526,"x_min":0,"x_max":0,"o":"m 381 -61 b 479 -154 438 -61 479 -100 b 338 -269 479 -224 418 -269 b 213 -229 289 -269 242 -251 l 242 -164 b 331 -196 269 -186 300 -196 b 396 -147 368 -196 396 -175 b 344 -103 396 -122 379 -103 b 300 -117 329 -103 313 -108 l 275 -92 l 307 -14 b 154 179 215 1 154 76 l 154 601 l 46 601 l 46 718 l 154 718 l 154 915 l 289 915 l 289 718 l 458 718 l 458 601 l 289 601 l 289 189 b 363 103 289 139 322 103 b 436 129 393 103 421 114 l 486 35 b 392 -11 460 13 426 -3 l 369 -61 l 381 -61 "},"u":{"ha":832,"x_min":0,"x_max":0,"o":"m 732 718 l 732 0 l 594 0 l 594 104 b 367 -17 551 33 464 -17 b 97 261 208 -17 97 99 l 97 718 l 232 718 l 232 285 b 397 103 232 178 300 103 b 594 253 497 103 583 168 l 594 718 "},"ú":{"ha":832,"x_min":0,"x_max":0,"o":"m 392 800 l 292 800 l 457 1006 l 592 978 m 732 718 l 732 0 l 594 0 l 594 104 b 367 -17 551 33 464 -17 b 97 261 208 -17 97 99 l 97 718 l 232 718 l 232 285 b 397 103 232 178 300 103 b 594 253 497 103 583 168 l 594 718 "},"û":{"ha":832,"x_min":0,"x_max":0,"o":"m 307 800 l 213 800 l 354 994 l 475 994 l 618 800 l 522 800 l 414 914 m 732 718 l 732 0 l 594 0 l 594 104 b 367 -17 551 33 464 -17 b 97 261 208 -17 97 99 l 97 718 l 232 718 l 232 285 b 397 103 232 178 300 103 b 594 253 497 103 583 168 l 594 718 "},"ü":{"ha":832,"x_min":0,"x_max":0,"o":"m 276 824 b 201 899 233 824 201 857 b 276 974 201 938 233 974 b 351 899 318 974 351 938 b 276 824 351 857 318 824 m 553 824 b 478 899 510 824 478 857 b 553 974 478 938 510 974 b 628 899 593 974 628 938 b 553 824 628 857 593 824 m 732 718 l 732 0 l 594 0 l 594 104 b 367 -17 551 33 464 -17 b 97 261 208 -17 97 99 l 97 718 l 232 718 l 232 285 b 397 103 232 178 300 103 b 594 253 497 103 583 168 l 594 718 "},"ù":{"ha":832,"x_min":0,"x_max":0,"o":"m 422 800 l 222 978 l 356 1006 l 522 800 m 732 718 l 732 0 l 594 0 l 594 104 b 367 -17 551 33 464 -17 b 97 261 208 -17 97 99 l 97 718 l 232 718 l 232 285 b 397 103 232 178 300 103 b 594 253 497 103 583 168 l 594 718 "},"ű":{"ha":832,"x_min":0,"x_max":0,"o":"m 301 799 l 201 799 l 367 1006 l 501 978 m 496 799 l 661 1003 l 794 975 l 594 799 m 594 718 l 732 718 l 732 0 l 594 0 l 594 104 b 367 -17 551 33 464 -17 b 97 261 208 -17 97 99 l 97 718 l 232 718 l 232 285 b 397 103 232 178 300 103 b 594 253 497 103 583 168 "},"ū":{"ha":832,"x_min":0,"x_max":0,"o":"m 638 819 l 190 819 l 190 910 l 638 910 m 732 718 l 732 0 l 594 0 l 594 104 b 367 -17 551 33 464 -17 b 97 261 208 -17 97 99 l 97 718 l 232 718 l 232 285 b 397 103 232 178 300 103 b 594 253 497 103 583 168 l 594 718 "},"ų":{"ha":832,"x_min":0,"x_max":0,"o":"m 833 -199 b 715 -240 803 -225 761 -240 b 563 -90 625 -240 563 -183 b 594 0 563 -56 575 -24 l 594 104 b 367 -17 551 33 464 -17 b 97 261 208 -17 97 99 l 97 718 l 232 718 l 232 285 b 397 103 232 178 300 103 b 594 253 497 103 583 168 l 594 718 l 732 718 l 732 0 b 657 -74 688 0 657 -31 b 732 -144 657 -118 685 -144 b 792 -121 758 -144 779 -135 "},"ů":{"ha":832,"x_min":0,"x_max":0,"o":"m 414 814 b 265 963 332 814 265 881 b 414 1110 265 1044 332 1110 b 561 963 496 1110 561 1044 b 414 814 561 881 496 814 m 414 1042 b 335 963 371 1042 335 1006 b 414 883 335 919 371 883 b 493 963 457 883 493 919 b 414 1042 493 1006 457 1042 m 732 718 l 732 0 l 594 0 l 594 104 b 367 -17 551 33 464 -17 b 97 261 208 -17 97 99 l 97 718 l 232 718 l 232 285 b 397 103 232 178 300 103 b 594 253 497 103 583 168 l 594 718 "},"v":{"ha":801,"x_min":0,"x_max":0,"o":"m 31 718 l 179 718 l 403 160 l 622 718 l 771 718 l 468 0 l 339 0 "},"w":{"ha":1161,"x_min":0,"x_max":0,"o":"m 40 718 l 181 718 l 346 183 l 524 718 l 640 718 l 818 183 l 982 718 l 1122 718 l 881 0 l 754 0 l 582 533 l 408 0 l 282 0 "},"ẃ":{"ha":1161,"x_min":0,"x_max":0,"o":"m 696 1006 l 831 978 l 631 800 l 531 800 m 40 718 l 181 718 l 346 183 l 524 718 l 640 718 l 818 183 l 982 718 l 1122 718 l 881 0 l 754 0 l 582 533 l 408 0 l 282 0 "},"ŵ":{"ha":1161,"x_min":0,"x_max":0,"o":"m 522 994 l 643 994 l 786 800 l 690 800 l 582 914 l 475 800 l 381 800 m 40 718 l 181 718 l 346 183 l 524 718 l 640 718 l 818 183 l 982 718 l 1122 718 l 881 0 l 754 0 l 582 533 l 408 0 l 282 0 "},"ẅ":{"ha":1161,"x_min":0,"x_max":0,"o":"m 444 824 b 369 899 401 824 369 857 b 444 974 369 938 401 974 b 519 899 486 974 519 938 b 444 824 519 857 486 824 m 721 824 b 646 899 678 824 646 857 b 721 974 646 938 678 974 b 796 899 761 974 796 938 b 721 824 796 857 761 824 m 40 718 l 181 718 l 346 183 l 524 718 l 640 718 l 818 183 l 982 718 l 1122 718 l 881 0 l 754 0 l 582 533 l 408 0 l 282 0 "},"ẁ":{"ha":1161,"x_min":0,"x_max":0,"o":"m 333 978 l 467 1006 l 633 800 l 533 800 m 40 718 l 181 718 l 346 183 l 524 718 l 640 718 l 818 183 l 982 718 l 1122 718 l 881 0 l 754 0 l 582 533 l 408 0 l 282 0 "},"x":{"ha":772,"x_min":0,"x_max":0,"o":"m 582 0 l 386 264 l 189 0 l 36 0 l 310 367 l 47 718 l 203 718 l 386 471 l 571 718 l 724 718 l 463 368 l 736 0 "},"y":{"ha":828,"x_min":0,"x_max":0,"o":"m 226 -250 b 90 -219 178 -250 128 -239 l 121 -114 b 208 -136 149 -129 181 -136 b 307 -81 253 -136 283 -122 l 343 -4 l 35 718 l 182 718 l 413 151 l 631 718 l 774 718 l 457 -65 b 226 -250 406 -194 329 -249 "},"ý":{"ha":828,"x_min":0,"x_max":0,"o":"m 456 1006 l 590 978 l 390 800 l 290 800 m 226 -250 b 90 -219 178 -250 128 -239 l 121 -114 b 208 -136 149 -129 181 -136 b 307 -81 253 -136 283 -122 l 343 -4 l 35 718 l 182 718 l 413 151 l 631 718 l 774 718 l 457 -65 b 226 -250 406 -194 329 -249 "},"ŷ":{"ha":828,"x_min":0,"x_max":0,"o":"m 353 994 l 474 994 l 617 800 l 521 800 l 413 914 l 306 800 l 211 800 m 226 -250 b 90 -219 178 -250 128 -239 l 121 -114 b 208 -136 149 -129 181 -136 b 307 -81 253 -136 283 -122 l 343 -4 l 35 718 l 182 718 l 413 151 l 631 718 l 774 718 l 457 -65 b 226 -250 406 -194 329 -249 "},"ÿ":{"ha":828,"x_min":0,"x_max":0,"o":"m 275 824 b 200 899 232 824 200 857 b 275 974 200 938 232 974 b 350 899 317 974 350 938 b 275 824 350 857 317 824 m 551 824 b 476 899 508 824 476 857 b 551 974 476 938 508 974 b 626 899 592 974 626 938 b 551 824 626 857 592 824 m 226 -250 b 90 -219 178 -250 128 -239 l 121 -114 b 208 -136 149 -129 181 -136 b 307 -81 253 -136 283 -122 l 343 -4 l 35 718 l 182 718 l 413 151 l 631 718 l 774 718 l 457 -65 b 226 -250 406 -194 329 -249 "},"ỳ":{"ha":828,"x_min":0,"x_max":0,"o":"m 221 978 l 354 1006 l 521 800 l 421 800 m 226 -250 b 90 -219 178 -250 128 -239 l 121 -114 b 208 -136 149 -129 181 -136 b 307 -81 253 -136 283 -122 l 343 -4 l 35 718 l 182 718 l 413 151 l 631 718 l 774 718 l 457 -65 b 226 -250 406 -194 329 -249 "},"z":{"ha":722,"x_min":0,"x_max":0,"o":"m 69 103 l 472 594 l 78 594 l 78 718 l 653 718 l 653 615 l 250 124 l 656 124 l 656 0 l 69 0 "},"ź":{"ha":722,"x_min":0,"x_max":0,"o":"m 414 1006 l 549 978 l 349 800 l 249 800 m 69 103 l 472 594 l 78 594 l 78 718 l 653 718 l 653 615 l 250 124 l 656 124 l 656 0 l 69 0 "},"ž":{"ha":722,"x_min":0,"x_max":0,"o":"m 169 994 l 264 994 l 371 881 l 479 994 l 575 994 l 432 800 l 311 800 m 69 103 l 472 594 l 78 594 l 78 718 l 653 718 l 653 615 l 250 124 l 656 124 l 656 0 l 69 0 "},"ż":{"ha":722,"x_min":0,"x_max":0,"o":"m 371 824 b 296 899 328 824 296 857 b 371 974 296 938 328 974 b 446 899 413 974 446 938 b 371 824 446 857 413 824 m 69 103 l 472 594 l 78 594 l 78 718 l 653 718 l 653 615 l 250 124 l 656 124 l 656 0 l 69 0 "},"*":{"ha":563,"x_min":0,"x_max":0,"o":"m 281 508 b 240 544 258 508 240 525 b 265 714 240 600 258 658 b 132 608 219 681 179 636 b 79 625 115 599 90 606 b 90 678 68 646 74 668 b 249 742 138 706 197 719 b 90 806 197 764 138 778 b 79 858 74 815 68 839 b 132 875 90 878 115 886 b 265 769 179 847 219 803 b 240 939 258 825 240 883 b 281 975 240 958 258 975 b 322 939 304 975 322 958 b 297 769 322 883 304 825 b 431 875 342 803 383 847 b 483 858 447 885 471 878 b 471 806 494 838 488 815 b 313 742 424 778 364 764 b 471 678 365 719 424 706 b 483 625 488 668 494 644 b 431 608 471 606 447 597 b 297 714 383 636 342 681 b 322 544 304 658 322 600 b 281 508 322 525 304 508 "},"\\":{"ha":599,"x_min":0,"x_max":0,"o":"m -11 1032 l 139 1032 l 624 -103 l 474 -103 "},":":{"ha":368,"x_min":0,"x_max":0,"o":"m 186 535 b 93 629 133 535 93 578 b 186 719 93 676 133 719 b 276 629 236 719 276 676 b 186 535 276 578 236 535 m 186 -17 b 93 78 133 -17 93 26 b 186 168 93 125 133 168 b 276 78 236 168 276 125 b 186 -17 276 26 236 -17 "},",":{"ha":381,"x_min":0,"x_max":0,"o":"m 111 -146 b 188 -17 151 -104 176 -60 b 97 76 138 -17 97 25 b 190 168 97 125 138 168 b 290 36 251 168 290 113 b 169 -190 290 -29 258 -89 "},"…":{"ha":981,"x_min":0,"x_max":0,"o":"m 186 -17 b 93 78 133 -17 93 26 b 186 168 93 125 133 168 b 276 78 236 168 276 125 b 186 -17 276 26 236 -17 m 492 -17 b 399 78 439 -17 399 26 b 492 168 399 125 439 168 b 582 78 542 168 582 125 b 492 -17 582 26 542 -17 m 797 -17 b 704 78 744 -17 704 26 b 797 168 704 125 744 168 b 888 78 847 168 888 125 b 797 -17 888 26 847 -17 "},"!":{"ha":394,"x_min":0,"x_max":0,"o":"m 119 954 l 282 954 l 247 290 l 153 290 m 199 -17 b 106 78 146 -17 106 26 b 199 168 106 125 146 168 b 289 78 249 168 289 125 b 199 -17 289 26 249 -17 "},"¡":{"ha":394,"x_min":0,"x_max":0,"o":"m 196 735 b 289 640 249 735 289 692 b 196 550 289 593 249 550 b 106 640 146 550 106 593 b 196 735 106 692 146 735 m 275 -236 l 113 -236 l 147 428 l 242 428 "},"#":{"ha":936,"x_min":0,"x_max":0,"o":"m 706 608 l 639 344 l 793 344 l 767 240 l 614 240 l 553 0 l 442 0 l 503 240 l 310 240 l 249 0 l 139 0 l 200 240 l 50 240 l 76 344 l 225 344 l 292 608 l 140 608 l 167 713 l 318 713 l 379 954 l 489 954 l 428 713 l 621 713 l 682 954 l 793 954 l 732 713 l 885 713 l 860 608 m 594 608 l 401 608 l 335 344 l 528 344 "},".":{"ha":368,"x_min":0,"x_max":0,"o":"m 186 -17 b 93 78 133 -17 93 26 b 186 168 93 125 133 168 b 276 78 236 168 276 125 b 186 -17 276 26 236 -17 "},"?":{"ha":703,"x_min":0,"x_max":0,"o":"m 249 538 b 507 697 400 549 507 615 b 335 844 507 774 442 844 b 118 728 243 844 174 794 l 32 814 b 350 971 108 906 211 971 b 649 711 529 971 649 857 b 382 440 649 586 538 474 l 382 288 l 249 288 m 315 -17 b 222 78 263 -17 222 26 b 315 168 222 125 263 168 b 406 78 365 168 406 125 b 315 -17 406 26 365 -17 "},"¿":{"ha":703,"x_min":0,"x_max":0,"o":"m 388 735 b 481 640 440 735 481 692 b 388 550 481 593 440 550 b 297 640 338 550 297 593 b 388 735 297 692 338 735 m 454 181 b 196 21 303 169 196 103 b 368 -126 196 -56 261 -126 b 585 -10 460 -126 529 -76 l 671 -96 b 353 -253 594 -187 492 -253 b 54 7 174 -253 54 -139 b 321 278 54 132 165 244 l 321 431 l 454 431 "},"\"":{"ha":622,"x_min":0,"x_max":0,"o":"m 139 579 b 94 867 121 668 94 796 b 172 946 94 910 131 946 b 250 867 214 946 250 910 b 206 579 250 796 224 668 l 139 579 m 417 579 b 372 867 399 668 372 796 b 450 946 372 910 408 946 b 528 867 492 946 528 910 b 483 579 528 796 501 668 l 417 579 "},"'":{"ha":344,"x_min":0,"x_max":0,"o":"m 139 579 b 94 867 121 668 94 796 b 172 946 94 910 131 946 b 250 867 214 946 250 910 b 206 579 250 796 224 668 l 139 579 "},";":{"ha":381,"x_min":0,"x_max":0,"o":"m 190 535 b 97 629 138 535 97 578 b 190 719 97 676 138 719 b 281 629 240 719 281 676 b 190 535 281 578 240 535 m 111 -146 b 188 -17 151 -104 176 -60 b 97 76 138 -17 97 25 b 190 168 97 125 138 168 b 290 36 251 168 290 113 b 169 -190 290 -29 258 -89 "},"/":{"ha":599,"x_min":0,"x_max":0,"o":"m 458 1032 l 608 1032 l 124 -103 l -26 -103 "},"_":{"ha":822,"x_min":0,"x_max":0,"o":"m -3 -100 l 825 -100 l 825 -201 l -3 -201 "},"{":{"ha":553,"x_min":0,"x_max":0,"o":"m 483 -231 b 189 10 261 -208 189 -137 l 190 196 b 56 324 190 286 153 324 l 56 415 b 190 543 154 415 190 454 l 189 728 b 483 968 189 876 263 946 l 494 878 b 303 719 333 854 303 825 l 304 528 b 199 369 304 442 268 393 b 304 210 269 344 304 296 l 303 19 b 494 -140 303 -87 336 -117 l 483 -231 "},"}":{"ha":553,"x_min":0,"x_max":0,"o":"m 58 -140 b 250 19 217 -117 250 -87 l 249 210 b 354 369 249 296 285 344 b 249 528 285 393 249 442 l 250 719 b 58 878 250 825 219 854 l 69 968 b 364 728 292 946 364 876 l 363 543 b 499 415 363 454 399 415 l 499 324 b 363 196 401 324 363 286 l 364 10 b 69 -231 364 -137 293 -208 "},"[":{"ha":517,"x_min":0,"x_max":0,"o":"m 108 1007 l 451 1007 l 451 910 l 222 910 l 222 -75 l 451 -75 l 451 -172 l 108 -172 "},"]":{"ha":517,"x_min":0,"x_max":0,"o":"m 65 -75 l 296 -75 l 296 910 l 65 910 l 65 1007 l 410 1007 l 410 -172 l 65 -172 "},"(":{"ha":508,"x_min":0,"x_max":0,"o":"m 378 -236 b 81 368 189 -85 81 126 b 378 972 81 611 189 821 l 450 897 b 222 368 300 744 222 588 b 450 -160 222 150 300 -8 l 378 -236 "},")":{"ha":508,"x_min":0,"x_max":0,"o":"m 58 -160 b 286 368 207 -8 286 150 b 58 897 286 588 207 744 l 131 972 b 428 368 319 821 428 611 b 131 -236 428 126 319 -85 "},"—":{"ha":1222,"x_min":0,"x_max":0,"o":"m 72 440 l 1150 440 l 1150 318 l 72 318 "},"–":{"ha":799,"x_min":0,"x_max":0,"o":"m 72 440 l 726 440 l 726 318 l 72 318 "},"-":{"ha":513,"x_min":0,"x_max":0,"o":"m 72 442 l 439 442 l 439 317 l 72 317 "},"“":{"ha":686,"x_min":0,"x_max":0,"o":"m 269 899 b 193 769 229 857 204 813 b 283 676 243 769 283 728 b 190 585 283 628 243 585 b 90 717 129 585 90 640 b 211 943 90 782 122 842 m 575 899 b 499 769 535 857 510 813 b 589 676 549 769 589 728 b 496 585 589 628 549 585 b 396 717 435 585 396 640 b 517 943 396 782 428 842 "},"”":{"ha":686,"x_min":0,"x_max":0,"o":"m 111 632 b 188 761 151 674 176 718 b 97 854 138 761 97 803 b 190 946 97 903 138 946 b 290 814 251 946 290 890 b 169 588 290 749 258 689 m 417 632 b 493 761 457 674 482 718 b 403 854 443 761 403 803 b 496 946 403 903 443 946 b 596 814 557 946 596 890 b 475 588 596 749 564 689 "},"‘":{"ha":381,"x_min":0,"x_max":0,"o":"m 269 899 b 193 769 229 857 204 813 b 283 676 243 769 283 728 b 190 585 283 628 243 585 b 90 717 129 585 90 640 b 211 943 90 782 122 842 "},"’":{"ha":381,"x_min":0,"x_max":0,"o":"m 111 632 b 188 761 151 674 176 718 b 97 854 138 761 97 803 b 190 946 97 903 138 946 b 290 814 251 946 290 890 b 169 588 290 749 258 689 "}," ":{"ha":397,"x_min":0,"x_max":0,"o":""},"¢":{"ha":756,"x_min":0,"x_max":0,"o":"m 708 99 b 481 -14 649 38 569 -4 l 481 -103 l 364 -103 l 364 -8 b 61 360 194 26 61 181 b 364 726 61 538 193 690 l 364 818 l 481 818 l 481 732 b 704 624 567 722 644 683 l 611 538 b 481 611 578 576 531 601 l 481 107 b 615 183 532 117 581 143 l 708 99 m 200 360 b 364 117 200 247 269 151 l 364 601 b 200 360 269 568 200 471 "},"$":{"ha":861,"x_min":0,"x_max":0,"o":"m 793 268 b 483 -14 793 117 685 -1 l 483 -103 l 367 -103 l 367 -11 b 53 138 242 4 138 57 l 138 242 b 367 117 203 179 276 135 l 367 426 b 89 692 199 471 89 533 b 367 969 89 836 203 949 l 367 1054 l 483 1054 l 483 968 b 768 838 599 956 690 906 l 688 732 b 483 842 626 788 556 826 l 483 544 b 793 268 667 500 793 435 m 232 704 b 367 575 232 638 278 604 l 367 844 b 232 704 286 828 232 768 m 483 110 b 651 254 594 119 651 185 b 483 397 651 331 596 367 l 483 110 "},"€":{"ha":951,"x_min":0,"x_max":0,"o":"m 563 113 b 815 228 661 113 751 158 l 914 133 b 563 -17 824 42 699 -17 b 90 331 346 -17 154 132 l -29 331 l -29 426 l 69 426 b 67 478 68 443 67 461 b 72 551 67 503 68 528 l -29 551 l -29 647 l 99 647 b 563 971 169 835 354 971 b 914 821 699 971 824 914 l 815 726 b 563 842 751 796 661 842 b 253 647 431 842 313 761 l 651 647 l 651 551 l 218 551 b 211 478 214 528 211 503 b 215 426 211 460 213 443 l 651 426 l 651 331 l 242 331 b 563 113 297 203 422 113 "},"£":{"ha":876,"x_min":0,"x_max":0,"o":"m 818 122 l 818 0 l 72 0 l 72 64 l 172 122 l 172 360 l 83 360 l 83 458 l 172 458 l 172 643 b 482 971 172 835 301 971 b 785 813 611 971 735 906 l 686 717 b 490 843 663 790 581 843 b 313 638 386 843 313 758 l 313 458 l 575 458 l 575 360 l 313 360 l 313 122 "},"¥":{"ha":943,"x_min":0,"x_max":0,"o":"m 597 454 l 817 454 l 817 356 l 544 356 l 544 251 l 817 251 l 817 153 l 544 153 l 544 0 l 400 0 l 400 153 l 128 153 l 128 251 l 400 251 l 400 356 l 128 356 l 128 454 l 347 454 l 18 954 l 188 954 l 472 507 l 761 954 l 924 954 "},"+":{"ha":828,"x_min":0,"x_max":0,"o":"m 739 401 l 478 401 l 478 140 l 350 140 l 350 401 l 90 401 l 90 525 l 350 525 l 350 789 l 478 789 l 478 525 l 739 525 "},"−":{"ha":828,"x_min":0,"x_max":0,"o":"m 90 525 l 739 525 l 739 401 l 90 401 "},"×":{"ha":761,"x_min":0,"x_max":0,"o":"m 564 190 l 379 375 l 196 192 l 107 278 l 292 463 l 106 649 l 196 739 l 382 553 l 567 738 l 653 649 l 469 465 l 654 281 "},"÷":{"ha":828,"x_min":0,"x_max":0,"o":"m 417 614 b 328 703 367 614 328 654 b 417 789 328 749 367 789 b 501 703 464 789 501 749 b 417 614 501 654 464 614 m 90 526 l 739 526 l 739 403 l 90 403 m 417 139 b 328 228 367 139 328 179 b 417 314 328 274 367 314 b 501 228 464 314 501 274 b 417 139 501 179 464 139 "},"=":{"ha":828,"x_min":0,"x_max":0,"o":"m 90 682 l 739 682 l 739 558 l 90 558 m 90 372 l 739 372 l 739 249 l 90 249 "},">":{"ha":817,"x_min":0,"x_max":0,"o":"m 103 240 l 618 478 l 103 715 l 103 835 l 740 531 l 740 424 l 103 119 "},"<":{"ha":817,"x_min":0,"x_max":0,"o":"m 76 424 l 76 531 l 714 835 l 714 715 l 199 478 l 714 240 l 714 119 "},"~":{"ha":621,"x_min":0,"x_max":0,"o":"m 401 414 b 221 499 321 414 274 499 b 156 411 186 499 165 474 l 79 424 b 219 594 93 533 138 594 b 400 510 300 594 347 510 b 465 597 433 510 454 536 l 542 586 b 401 414 528 475 482 414 "},"%":{"ha":1125,"x_min":0,"x_max":0,"o":"m 288 482 b 61 719 151 482 61 589 b 289 963 61 857 154 963 b 515 722 425 963 515 856 b 288 482 515 586 421 482 m 836 954 l 947 954 l 290 0 l 181 0 m 289 571 b 411 721 360 571 411 633 b 288 872 411 808 358 872 b 165 721 215 872 165 810 b 289 571 165 635 218 571 m 835 -14 b 608 226 703 -14 608 90 b 836 467 608 358 701 467 b 1063 228 972 467 1063 358 b 835 -14 1063 90 968 -14 m 836 76 b 958 226 908 76 958 139 b 835 378 958 314 906 378 b 713 228 763 378 713 313 b 836 76 713 140 764 76 "},"‰":{"ha":1647,"x_min":0,"x_max":0,"o":"m 288 482 b 61 719 151 482 61 589 b 289 963 61 857 154 963 b 515 722 425 963 515 856 b 288 482 515 586 421 482 m 836 954 l 947 954 l 290 0 l 181 0 m 289 571 b 411 721 360 571 411 633 b 288 872 411 808 358 872 b 165 721 215 872 165 810 b 289 571 165 635 218 571 m 835 -14 b 608 226 703 -14 608 90 b 836 467 608 358 701 467 b 1063 228 972 467 1063 358 b 835 -14 1063 90 968 -14 m 1358 -14 b 1131 226 1225 -14 1131 90 b 1358 467 1131 358 1224 467 b 1585 228 1494 467 1585 358 b 1358 -14 1585 90 1490 -14 m 836 76 b 958 226 908 76 958 139 b 835 378 958 314 906 378 b 713 228 763 378 713 313 b 836 76 713 140 764 76 m 1358 76 b 1482 226 1432 76 1482 139 b 1358 378 1482 314 1429 378 b 1235 228 1285 378 1235 313 b 1358 76 1235 140 1286 76 "},"@":{"ha":1224,"x_min":0,"x_max":0,"o":"m 592 -161 b 61 360 300 -161 61 75 b 642 938 61 674 325 938 b 1163 447 929 938 1163 713 b 901 107 1163 217 1026 107 b 738 222 813 107 756 151 b 519 107 686 157 611 107 b 288 351 385 107 288 206 b 607 699 288 544 446 699 b 796 590 703 699 764 649 l 813 678 l 931 669 b 858 271 886 443 858 311 b 944 185 858 215 892 185 b 1110 447 1019 185 1110 261 b 639 886 1110 688 900 886 b 115 361 353 886 115 647 b 594 -111 115 103 329 -111 b 893 -26 708 -111 794 -86 l 919 -65 b 592 -161 814 -132 717 -161 m 556 208 b 763 431 674 208 750 306 b 628 597 774 532 728 597 b 413 360 510 597 413 486 b 556 208 413 268 469 208 "},"&":{"ha":935,"x_min":0,"x_max":0,"o":"m 763 -14 b 646 106 719 29 681 69 b 358 -17 567 29 474 -17 b 51 256 183 -17 51 86 b 265 531 51 379 118 465 b 189 736 211 606 189 665 b 442 965 189 864 296 965 b 681 738 578 965 681 864 b 453 499 681 618 594 560 b 647 286 510 433 569 367 b 750 486 688 344 722 413 l 860 436 b 728 201 819 349 776 269 l 883 42 m 442 856 b 317 736 371 856 317 810 b 386 578 317 688 339 639 b 553 736 504 625 553 663 b 442 856 553 803 507 856 m 369 97 b 567 188 440 97 507 132 b 331 447 461 297 390 375 b 188 261 239 400 188 340 b 369 97 188 158 271 97 "},"|":{"ha":396,"x_min":0,"x_max":0,"o":"m 147 1032 l 249 1032 l 249 -103 l 147 -103 "},"^":{"ha":679,"x_min":0,"x_max":0,"o":"m 290 954 l 392 954 l 610 574 l 501 574 l 339 861 l 176 574 l 69 574 "},"̦":{"ha":0,"x_min":0,"x_max":0,"o":"m -253 -354 b -190 -246 -219 -319 -199 -283 b -262 -172 -229 -246 -262 -212 b -187 -97 -262 -132 -229 -97 b -106 -204 -137 -97 -106 -142 b -204 -389 -106 -257 -132 -304 "},"´":{"ha":475,"x_min":0,"x_max":0,"o":"m 253 1006 l 388 978 l 188 800 l 88 800 "},"˘":{"ha":594,"x_min":0,"x_max":0,"o":"m 297 814 b 88 900 221 814 146 843 l 160 974 b 297 915 197 938 249 915 b 435 974 346 915 397 938 l 507 900 b 297 814 450 843 374 814 "},"ˇ":{"ha":581,"x_min":0,"x_max":0,"o":"m 88 994 l 182 994 l 289 881 l 397 994 l 493 994 l 350 800 l 229 800 "},"¸":{"ha":442,"x_min":0,"x_max":0,"o":"m 256 -61 b 354 -154 313 -61 354 -100 b 213 -269 354 -224 293 -269 b 88 -229 164 -269 117 -251 l 117 -164 b 206 -196 144 -186 175 -196 b 271 -147 243 -196 271 -175 b 219 -103 271 -122 254 -103 b 175 -117 204 -103 188 -108 l 150 -92 l 194 15 l 278 15 l 244 -61 l 256 -61 "},"ˆ":{"ha":581,"x_min":0,"x_max":0,"o":"m 229 994 l 350 994 l 493 800 l 397 800 l 289 914 l 182 800 l 88 800 "},"¨":{"ha":601,"x_min":0,"x_max":0,"o":"m 163 824 b 88 899 119 824 88 857 b 163 974 88 938 119 974 b 238 899 204 974 238 938 b 163 824 238 857 204 824 m 439 824 b 364 899 396 824 364 857 b 439 974 364 938 396 974 b 514 899 479 974 514 938 b 439 824 514 857 479 824 "},"˙":{"ha":325,"x_min":0,"x_max":0,"o":"m 163 824 b 88 899 119 824 88 857 b 163 974 88 938 119 974 b 238 899 204 974 238 938 b 163 824 238 857 204 824 "},"`":{"ha":475,"x_min":0,"x_max":0,"o":"m 88 978 l 221 1006 l 388 800 l 288 800 "},"˝":{"ha":769,"x_min":0,"x_max":0,"o":"m 253 1006 l 388 978 l 188 799 l 88 799 m 547 1003 l 681 975 l 481 799 l 382 799 "},"¯":{"ha":622,"x_min":0,"x_max":0,"o":"m 88 910 l 535 910 l 535 819 l 88 819 "},"˛":{"ha":446,"x_min":0,"x_max":0,"o":"m 240 -240 b 88 -90 150 -240 88 -183 b 161 32 88 -35 119 13 l 257 0 b 182 -74 213 0 182 -31 b 257 -144 182 -118 210 -144 b 317 -121 283 -144 304 -135 l 358 -199 b 240 -240 328 -225 286 -240 "},"˚":{"ha":471,"x_min":0,"x_max":0,"o":"m 236 814 b 88 963 154 814 88 881 b 236 1110 88 1044 154 1110 b 383 963 318 1110 383 1044 b 236 814 383 881 318 814 m 236 883 b 315 963 279 883 315 919 b 236 1042 315 1006 279 1042 b 157 963 193 1042 157 1006 b 236 883 157 919 193 883 "},"˜":{"ha":624,"x_min":0,"x_max":0,"o":"m 403 797 b 222 882 322 797 275 882 b 157 794 188 882 167 857 l 81 807 b 221 978 94 917 139 978 b 401 893 301 978 349 893 b 467 981 435 893 456 919 l 543 969 b 403 797 529 858 483 797 "}}}
